<?xml version="1.0" encoding="utf-8"?>
<!-- Generator: Adobe Illustrator 18.1.0, SVG Export Plug-In . SVG Version: 6.00 Build 0)  -->
<svg version="1.1" id="Layer_1" xmlns="http://www.w3.org/2000/svg" xmlns:xlink="http://www.w3.org/1999/xlink" x="0px" y="0px"
	 viewBox="0 0 80 80" enable-background="new 0 0 80 80" xml:space="preserve">
<g>
	<g>
		<defs>
			<rect id="SVGID_1_" x="30" y="30.7" width="19.2" height="19.3"/>
		</defs>
		<clipPath id="SVGID_2_">
			<use xlink:href="#SVGID_1_"  overflow="visible"/>
		</clipPath>
		<path clip-path="url(#SVGID_2_)" fill="#FFFFFF" d="M30.3,35.2c0,0,0-4.2,4.2-4.2h10.2c0,0,4.2,0,4.2,4.2v10.4c0,0,0,4.2-4.2,4.2
			H34.5c0,0-4.2,0-4.2-4.2V35.2z"/>
		
			<path clip-path="url(#SVGID_2_)" fill="none" stroke="#59636A" stroke-width="0.625" stroke-linecap="round" stroke-linejoin="round" d="
			M30.3,35.2c0,0,0-4.2,4.2-4.2h10.2c0,0,4.2,0,4.2,4.2v10.4c0,0,0,4.2-4.2,4.2H34.5c0,0-4.2,0-4.2-4.2V35.2z"/>
		<path clip-path="url(#SVGID_2_)" fill="#43525C" d="M35.8,35.9h7.5c0.9,0,0.7,0.7,0.7,0.7l-3.2,3.7v4.1c0,0.2-0.2,0.4-0.4,0.4
			h-1.7c-0.2,0-0.4-0.2-0.4-0.4v-4.1l-3.2-3.7C35.1,36.6,35,35.9,35.8,35.9"/>
	</g>
</g>
</svg>
