<?xml version="1.0" encoding="utf-8"?>
<!-- Generator: Adobe Illustrator 18.1.0, SVG Export Plug-In . SVG Version: 6.00 Build 0)  -->
<svg version="1.1" id="Layer_1" xmlns="http://www.w3.org/2000/svg" xmlns:xlink="http://www.w3.org/1999/xlink" x="0px" y="0px"
	 viewBox="0 0 75 75" enable-background="new 0 0 75 75" xml:space="preserve">
<g>
	<g>
		<defs>
			<rect id="SVGID_11_" x="0" y="0.4" width="75" height="74.2"/>
		</defs>
		<clipPath id="SVGID_2_">
			<use xlink:href="#SVGID_11_"  overflow="visible"/>
		</clipPath>
		<path clip-path="url(#SVGID_2_)" fill="#414042" d="M19.9,35c-2.4,0.4-4.9,0.2-7.4-0.7c-1-0.4-2-0.8-2.9-1.4
			c7.7,0,14.8-4.8,17.5-12.3c1.6-4.4,1.4-9.2-0.3-13.4c4.7,3.4,7.2,9.3,6.2,15.2c-0.4,0.8-0.7,1.7-0.9,2.6
			C26.1,25.2,21.3,29.4,19.9,35 M65.7,32.7L65.7,32.7c0.2-1.1,0.3-2.3,0.3-3.5C66,19.7,58.2,12,48.7,12c-4.9,0-9.4,2.1-12.6,5.4
			C35.3,10.7,30.8,4.6,24,2.2C23.8,2.1,23.6,2,23.4,2l-5.2-1.6l3.3,4c3.5,4.3,4.5,9.9,2.6,15c-2.8,7.8-11.1,12-19,9.6l-5-1.5
			l3.3,4.1c2.1,2.6,4.9,4.6,8.1,5.7c2.7,1,5.4,1.2,8,0.9c0.1,7.2,6,13.1,13.2,13.1h2.4v-3.6h-2.4c-5.3,0-9.6-4.3-9.6-9.6
			c0-5.3,4.3-9.6,9.6-9.6c0.2,0,0.4,0,0.7,0l1.6,0.1l0.3-1.6c1.1-6.6,6.7-11.4,13.5-11.4c7.5,0,13.7,6.1,13.7,13.7
			c0,1.7-0.3,3.4-1,5.1l-1.5,3.8l3.8-1.4c0.6-0.2,1.3-0.4,2-0.4c3.1,0,5.7,2.6,5.7,5.7c0,3.1-2.6,5.7-5.7,5.7h-6.1v3.6h6.1
			c5.1,0,9.3-4.2,9.3-9.3C75,36.9,70.8,32.7,65.7,32.7"/>
	</g>
	<polygon fill="#414042" points="46.6,33.6 38.7,47.5 44.9,47.5 37.7,58.5 42.4,58.5 32.8,74.6 51.1,54.6 45.8,54.6 54.5,43.6 
		48.4,43.6 57.1,33.6 	"/>
</g>
</svg>
