<?xml version="1.0" encoding="utf-8"?>
<!-- Generator: Adobe Illustrator 18.1.0, SVG Export Plug-In . SVG Version: 6.00 Build 0)  -->
<svg version="1.1" id="Layer_1" xmlns="http://www.w3.org/2000/svg" xmlns:xlink="http://www.w3.org/1999/xlink" x="0px" y="0px"
	 viewBox="0 0 75 75" enable-background="new 0 0 75 75" xml:space="preserve">
<g>
	<defs>
		<rect id="SVGID_3_" x="2.2" y="4" width="70.6" height="67.1"/>
	</defs>
	<clipPath id="SVGID_2_">
		<use xlink:href="#SVGID_3_"  overflow="visible"/>
	</clipPath>
	<path clip-path="url(#SVGID_2_)" fill="#F09A27" d="M16.3,20.6c0.4-0.4,0.8-0.9,1.2-1.3c0.4-0.4,0.8-0.8,1.3-1.2l-6-6
		c-0.7-0.7-1.8-0.7-2.5,0c-0.7,0.7-0.7,1.8,0,2.5L16.3,20.6z"/>
	<path clip-path="url(#SVGID_2_)" fill="#F09A27" d="M2.7,30.6c-0.3,0.3-0.5,0.8-0.5,1.2c0,1,0.8,1.8,1.7,1.8h8.5
		c-0.1-1.2-0.1-2.3,0-3.5H3.9C3.5,30,3,30.2,2.7,30.6"/>
	<path clip-path="url(#SVGID_2_)" fill="#F09A27" d="M31.8,5.7C31.8,4.8,31,4,30,4c-0.5,0-0.9,0.2-1.2,0.5c-0.3,0.3-0.5,0.8-0.5,1.2
		v8.5c1.2-0.1,2.3-0.1,3.5,0V5.7z"/>
	<path clip-path="url(#SVGID_2_)" fill="#F09A27" d="M63.4,68.4c-0.1,0-8.9,2.3-17.8-9.4c-3.3-4.3-6.6-6.9-9.6-8.5
		c-5.9-3.1-10.5-1.9-10.8-1.8c-0.6,0.2-1,0.9-0.9,1.5c0.2,0.7,0.8,1,1.5,0.9c0.1,0,8.9-2.3,17.8,9.4c9.8,13,19.9,10.4,20.4,10.3
		c0.7-0.2,1-0.9,0.9-1.5C64.8,68.6,64.1,68.2,63.4,68.4"/>
	<path clip-path="url(#SVGID_2_)" fill="#F09A27" d="M66,63.5c-0.1,0-8.9,2.3-17.8-9.4c-3.3-4.3-6.6-6.9-9.6-8.5
		c-5.9-3.1-10.5-1.9-10.8-1.8c-0.7,0.2-1,0.9-0.9,1.5c0.2,0.7,0.8,1,1.5,0.9c0.1,0,8.9-2.3,17.8,9.4c9.8,13,20,10.4,20.4,10.3
		c0.7-0.2,1-0.9,0.9-1.5C67.3,63.7,66.6,63.3,66,63.5"/>
	<path clip-path="url(#SVGID_2_)" fill="#F09A27" d="M68.5,58.6c-0.1,0-8.9,2.3-17.8-9.4c-3.3-4.3-6.6-6.9-9.6-8.5
		c-5.9-3.1-10.5-1.9-10.8-1.8c-0.7,0.2-1,0.8-0.9,1.5c0.2,0.7,0.9,1,1.5,0.9c0.1,0,8.9-2.3,17.8,9.4c9.8,13,19.9,10.4,20.4,10.3
		c0.7-0.2,1-0.9,0.9-1.5C69.8,58.8,69.2,58.4,68.5,58.6"/>
	<path clip-path="url(#SVGID_2_)" fill="#F09A27" d="M28.9,31.8c-3.7,0.2-7.1,1.9-9.4,4.5c-1.8-4.2-1-9.2,2.4-12.6
		c3.7-3.7,9.4-4.3,13.8-1.8C32.4,24.3,30,27.7,28.9,31.8 M63.3,39.8L63.3,39.8c0.2-1.2,0.3-2.3,0.3-3.5c0-9.7-7.9-17.6-17.6-17.6
		c-2.5,0-4.8,0.5-6.9,1.4c-5.9-4.5-14.3-4.2-19.7,1.2c-5,5-5.7,12.7-2.1,18.4c-0.8,1.7-1.3,3.6-1.3,5.6c0,7.4,6.1,13.5,13.5,13.5
		h9.7c-1.7-1.7-3.1-2.9-4.3-3.7h-5.4c-5.4,0-9.8-4.4-9.8-9.8c0-5.4,4.4-9.8,9.8-9.8c0.2,0,0.4,0,0.7,0l1.7,0.1l0.3-1.7
		c1.1-6.8,6.9-11.7,13.8-11.7c7.7,0,14,6.3,14,14c0,1.8-0.3,3.5-1,5.2l-1.5,3.8l3.9-1.5c0.7-0.2,1.3-0.4,2-0.4
		c3.2,0,5.8,2.6,5.8,5.8c0,3.2-2.6,5.8-5.8,5.8h-3.2c3.7,2.6,7.7,2,8.2,2c3-1.6,4.5-4.3,4.5-7.9C72.8,44,68.6,39.8,63.3,39.8"/>
</g>
</svg>
