<?xml version="1.0" encoding="utf-8"?>
<!-- Generator: Adobe Illustrator 18.1.0, SVG Export Plug-In . SVG Version: 6.00 Build 0)  -->
<svg version="1.1" id="Layer_1" xmlns="http://www.w3.org/2000/svg" xmlns:xlink="http://www.w3.org/1999/xlink" x="0px" y="0px"
	 viewBox="0 0 75 75" enable-background="new 0 0 75 75" xml:space="preserve">
<g>
	<defs>
		<rect id="SVGID_25_" x="4.7" y="5.2" width="65.6" height="64.5"/>
	</defs>
	<clipPath id="SVGID_2_">
		<use xlink:href="#SVGID_25_"  overflow="visible"/>
	</clipPath>
	<path clip-path="url(#SVGID_2_)" fill="#7C7293" d="M32.1,6.9c0-0.9-0.7-1.6-1.6-1.6c-0.4,0-0.8,0.2-1.2,0.5
		C29,6,28.8,6.4,28.9,6.9v7.8c1.1-0.1,2.2-0.1,3.2,0V6.9z"/>
	<path clip-path="url(#SVGID_2_)" fill="#7C7293" d="M34.4,66c-0.2-0.5-0.5-1.5-0.4-2.2c0-0.1-0.1-0.1-0.1,0
		c-0.4,0.6-1.2,1.2-1.7,1.5c-0.2,0.1-0.9,0.6-1.1,0.8c0,0,0,0,0,0v0c-0.2,0.2-0.4,0.5-0.5,0.8c-0.4,1.1,0.2,2.4,1.4,2.7
		c1.1,0.4,2.4-0.2,2.7-1.4c0.1-0.3,0.1-0.6,0.1-0.9v0c0,0,0,0,0,0C34.8,67.1,34.5,66.3,34.4,66"/>
	<path clip-path="url(#SVGID_2_)" fill="#7C7293" d="M37.7,55.8c-0.2-0.5-0.5-1.5-0.4-2.2c0-0.1-0.1-0.1-0.1,0
		c-0.4,0.6-1.2,1.2-1.7,1.5c-0.2,0.1-0.9,0.6-1.1,0.8c0,0,0,0,0,0c-0.2,0.2-0.4,0.5-0.5,0.8c-0.4,1.1,0.2,2.4,1.4,2.7
		c1.1,0.4,2.4-0.3,2.7-1.4c0.1-0.3,0.1-0.6,0.1-0.9c0,0,0,0,0,0C38.1,56.9,37.8,56,37.7,55.8"/>
	<path clip-path="url(#SVGID_2_)" fill="#7C7293" d="M41.3,47.8c0.1-0.3,0.1-0.6,0.1-0.9h0c0,0,0,0,0,0c0-0.2-0.3-1-0.4-1.3
		c-0.2-0.5-0.5-1.5-0.4-2.2c0-0.1-0.1-0.1-0.1,0c-0.4,0.6-1.2,1.2-1.7,1.5c-0.2,0.1-0.9,0.6-1.1,0.8c0,0,0,0,0,0
		c-0.2,0.2-0.4,0.5-0.5,0.8c-0.4,1.1,0.2,2.4,1.4,2.7C39.7,49.5,40.9,48.9,41.3,47.8"/>
	<path clip-path="url(#SVGID_2_)" fill="#7C7293" d="M40.9,66c-0.2-0.5-0.5-1.5-0.4-2.2c0-0.1-0.1-0.1-0.1,0
		c-0.4,0.6-1.2,1.2-1.7,1.5c-0.2,0.1-0.9,0.6-1.1,0.8l0,0v0c-0.2,0.2-0.4,0.5-0.5,0.8c-0.4,1.1,0.2,2.4,1.4,2.7
		c1.1,0.4,2.3-0.2,2.7-1.4c0.1-0.3,0.1-0.6,0.1-0.9v0c0,0,0,0,0,0C41.3,67.1,41,66.3,40.9,66"/>
	<path clip-path="url(#SVGID_2_)" fill="#7C7293" d="M44.2,55.8c-0.2-0.5-0.5-1.5-0.4-2.2c0-0.1-0.1-0.1-0.1,0
		c-0.4,0.6-1.2,1.2-1.7,1.5c-0.2,0.1-0.9,0.6-1.1,0.8c0,0,0,0,0,0c-0.2,0.2-0.4,0.5-0.5,0.8c-0.4,1.1,0.2,2.4,1.4,2.7
		c1.1,0.4,2.4-0.3,2.7-1.4c0.1-0.3,0.1-0.6,0.1-0.9c0,0,0,0,0,0C44.6,56.9,44.3,56,44.2,55.8"/>
	<path clip-path="url(#SVGID_2_)" fill="#7C7293" d="M47.9,47.8c0.1-0.3,0.1-0.6,0.1-0.9c0,0,0,0,0,0c0-0.2-0.3-1-0.4-1.3
		c-0.2-0.5-0.5-1.5-0.4-2.2c0-0.1-0.1-0.1-0.1,0c-0.4,0.6-1.2,1.2-1.7,1.5c-0.2,0.1-0.9,0.6-1.1,0.8c0,0,0,0,0,0h0
		c-0.2,0.2-0.4,0.5-0.5,0.8c-0.4,1.1,0.3,2.4,1.4,2.7C46.3,49.5,47.5,48.9,47.9,47.8"/>
	<path clip-path="url(#SVGID_2_)" fill="#7C7293" d="M47.5,66c-0.2-0.5-0.5-1.5-0.4-2.2c0-0.1-0.1-0.1-0.1,0
		c-0.4,0.6-1.2,1.2-1.7,1.5c-0.2,0.1-0.9,0.6-1.1,0.8c0,0,0,0,0,0v0c-0.2,0.2-0.4,0.5-0.5,0.8c-0.4,1.1,0.3,2.4,1.4,2.7
		c1.1,0.4,2.4-0.2,2.7-1.4c0.1-0.3,0.1-0.6,0.1-0.9v0v0C47.9,67.1,47.6,66.3,47.5,66"/>
	<path clip-path="url(#SVGID_2_)" fill="#7C7293" d="M50.8,55.8c-0.2-0.5-0.5-1.5-0.5-2.2c0-0.1-0.1-0.1-0.1,0
		c-0.4,0.6-1.2,1.2-1.7,1.5c-0.2,0.1-0.9,0.6-1.1,0.8c0,0,0,0,0,0c-0.2,0.2-0.4,0.5-0.5,0.8c-0.4,1.1,0.2,2.4,1.4,2.7
		c1.1,0.4,2.4-0.3,2.7-1.4c0.1-0.3,0.1-0.6,0.1-0.9v0C51.1,56.9,50.9,56,50.8,55.8"/>
	<path clip-path="url(#SVGID_2_)" fill="#7C7293" d="M54.1,45.5c-0.2-0.5-0.5-1.4-0.4-2.2c0-0.1-0.1-0.1-0.1,0
		c-0.4,0.6-1.2,1.2-1.7,1.5c-0.2,0.1-0.9,0.6-1.1,0.8c0,0,0,0,0,0c-0.2,0.2-0.4,0.5-0.5,0.8c-0.4,1.1,0.2,2.4,1.4,2.7
		c1.1,0.4,2.4-0.3,2.7-1.4c0.1-0.3,0.1-0.6,0.1-0.9h0c0,0,0,0,0,0C54.4,46.6,54.2,45.8,54.1,45.5"/>
	<path clip-path="url(#SVGID_2_)" fill="#7C7293" d="M17.8,20.6c0.3-0.4,0.7-0.8,1.1-1.2c0.4-0.4,0.8-0.7,1.2-1.1l-5.5-5.6
		c-0.6-0.6-1.7-0.6-2.3,0c-0.6,0.6-0.6,1.7,0,2.3L17.8,20.6z"/>
	<path clip-path="url(#SVGID_2_)" fill="#7C7293" d="M5.2,29.9c-0.3,0.3-0.5,0.7-0.5,1.2c0,0.9,0.7,1.6,1.6,1.6h7.8
		c-0.1-1.1-0.1-2.2,0-3.3H6.3C5.9,29.4,5.5,29.6,5.2,29.9"/>
	<path clip-path="url(#SVGID_2_)" fill="#7C7293" d="M29.6,30.6c-3.6,0.2-6.7,1.9-8.9,4.5c-1.6-3.8-0.8-8.4,2.3-11.5
		c3.4-3.4,8.5-4,12.5-1.8C32.6,23.9,30.5,27,29.6,30.6 M61.5,38L61.5,38c0.2-1.1,0.3-2.2,0.3-3.3c0-9-7.3-16.4-16.3-16.4
		c-2.4,0-4.8,0.6-6.9,1.6c-5.4-3.9-13-3.5-17.9,1.3c-4.6,4.6-5.2,11.7-2,17c-0.6,1.5-1,3.1-1,4.8c0,6.9,5.6,12.5,12.5,12.5h2.2v-3.4
		h-2.2c-5,0-9.1-4.1-9.1-9.1c0-5,4.1-9.1,9.1-9.1c0.2,0,0.4,0,0.7,0l1.6,0.1l0.3-1.5c1-6.3,6.4-10.8,12.8-10.8
		c7.1,0,12.9,5.8,12.9,12.9c0,1.6-0.3,3.2-0.9,4.8L56,43l3.6-1.3c0.6-0.2,1.2-0.3,1.9-0.3c3,0,5.4,2.4,5.4,5.4c0,3-2.4,5.4-5.4,5.4
		h-5.8v3.4h5.8c4.9,0,8.8-4,8.8-8.8C70.3,41.9,66.4,38,61.5,38"/>
</g>
</svg>
