<?xml version="1.0" encoding="utf-8"?>
<!-- Generator: Adobe Illustrator 18.1.0, SVG Export Plug-In . SVG Version: 6.00 Build 0)  -->
<svg version="1.1" id="Layer_1" xmlns="http://www.w3.org/2000/svg" xmlns:xlink="http://www.w3.org/1999/xlink" x="0px" y="0px"
	 viewBox="0 0 75 75" enable-background="new 0 0 75 75" xml:space="preserve">
<g>
	<defs>
		<rect id="SVGID_31_" x="4.4" y="14.1" width="66.2" height="46.8"/>
	</defs>
	<clipPath id="SVGID_2_">
		<use xlink:href="#SVGID_31_"  overflow="visible"/>
	</clipPath>
	<path clip-path="url(#SVGID_2_)" fill="#135C87" d="M20.2,33.7c-6.3,0-11.4,5.1-11.4,11.4c0,6.3,5.1,11.5,11.4,11.5h39.3
		c3.7,0,6.8-3.1,6.8-6.8c0-3.7-3-6.8-6.8-6.8c-0.8,0-1.6,0.1-2.4,0.4l-4.5,1.7l1.8-4.5c0.8-1.9,1.2-4,1.2-6c0-9-7.3-16.3-16.3-16.3
		c-8,0-14.7,5.7-16,13.6l-0.3,1.9l-2-0.1C20.6,33.8,20.4,33.7,20.2,33.7 M59.5,60.9H20.2c-8.7,0-15.7-7.1-15.7-15.7
		c0-8.4,6.7-15.3,15-15.7c2.3-9,10.4-15.4,19.9-15.4c11.3,0,20.6,9.2,20.6,20.6c0,1.4-0.1,2.8-0.4,4.1h0.1c6.1,0,11.1,5,11.1,11.1
		C70.6,55.9,65.6,60.9,59.5,60.9"/>
</g>
</svg>
