<?xml version="1.0" encoding="utf-8"?>
<!-- Generator: Adobe Illustrator 18.1.0, SVG Export Plug-In . SVG Version: 6.00 Build 0)  -->
<svg version="1.1" id="Layer_1" xmlns="http://www.w3.org/2000/svg" xmlns:xlink="http://www.w3.org/1999/xlink" x="0px" y="0px"
	 viewBox="0 0 75 75" enable-background="new 0 0 75 75" xml:space="preserve">
<g>
	<defs>
		<rect id="SVGID_17_" x="4.4" y="1.7" width="66.1" height="71.7"/>
	</defs>
	<clipPath id="SVGID_2_">
		<use xlink:href="#SVGID_17_"  overflow="visible"/>
	</clipPath>
	<path clip-path="url(#SVGID_2_)" fill="#515E90" d="M34.2,67.5C34.2,67.5,34.2,67.5,34.2,67.5c-0.1-0.6-0.8-2.6-1-3.2
		c-0.5-1.3-1.2-3.5-1.1-5.3c0-0.2-0.2-0.3-0.3-0.1c-0.9,1.5-2.8,2.9-4,3.6c-0.6,0.3-2.3,1.5-2.7,1.9c0,0-0.1,0.1-0.1,0.1v0
		c-0.5,0.5-0.9,1.2-1.1,1.9c-0.9,2.8,0.6,5.7,3.3,6.6c2.8,0.9,5.7-0.6,6.6-3.4C34.3,69,34.3,68.2,34.2,67.5L34.2,67.5z"/>
	<path clip-path="url(#SVGID_2_)" fill="#515E90" d="M46.6,60.8c-0.3-0.7-0.7-2-0.6-3c0-0.1-0.1-0.2-0.1-0.1
		c-0.6,0.9-1.6,1.7-2.3,2.1c-0.3,0.2-1.3,0.9-1.5,1.1c0,0,0,0,0,0c-0.3,0.3-0.5,0.7-0.7,1.1c-0.5,1.6,0.4,3.3,1.9,3.8
		c1.6,0.5,3.3-0.3,3.8-1.9c0.1-0.4,0.2-0.8,0.1-1.3l0,0c0,0,0,0,0,0C47.1,62.3,46.7,61.2,46.6,60.8"/>
	<path clip-path="url(#SVGID_2_)" fill="#515E90" d="M59.5,26.3L59.5,26.3c0.2-1.3,0.4-2.7,0.4-4.1c0-11.3-9.2-20.6-20.6-20.6
		c-9.5,0-17.6,6.4-19.9,15.4c-8.3,0.4-15,7.3-15,15.7c0,8.7,7,15.7,15.7,15.7H23v-4.3h-2.8c-6.3,0-11.4-5.1-11.4-11.4
		c0-6.3,5.1-11.4,11.4-11.4c0.2,0,0.5,0,0.8,0l1.9,0.1l0.3-1.9c1.3-7.9,8-13.6,16-13.6c9,0,16.3,7.3,16.3,16.3c0,2.1-0.4,4.1-1.2,6
		l-1.8,4.5l4.5-1.7c0.8-0.3,1.6-0.4,2.4-0.4c3.7,0,6.8,3,6.8,6.8c0,3.7-3.1,6.8-6.8,6.8h-7.3v4.3h7.3c6.1,0,11.1-5,11.1-11.1
		C70.6,31.3,65.6,26.3,59.5,26.3"/>
	<path clip-path="url(#SVGID_2_)" fill="#515E90" d="M50.1,45.5h-2.7l1.3-1.3c0.3-0.3,0.3-0.7,0-0.9c-0.3-0.3-0.7-0.3-0.9,0
		l-2.2,2.2h-5.8l4-4h3.2c0.4,0,0.7-0.3,0.7-0.7c0-0.2-0.1-0.4-0.2-0.5c-0.1-0.1-0.3-0.2-0.5-0.2h-1.9l2-1.9c0.1-0.1,0.1-0.2,0.2-0.3
		c0.1-0.3,0.1-0.7-0.1-0.9c-0.1-0.1-0.2-0.1-0.3-0.2c-0.1,0-0.2-0.1-0.3-0.1c-0.2,0-0.4,0.1-0.6,0.2L44,38.9v-1.9
		c0-0.4-0.3-0.7-0.7-0.7c-0.4,0-0.7,0.3-0.7,0.7v3.2l-4.1,4.1v-5.7l2.3-2.3c0.3-0.3,0.3-0.7,0-0.9c-0.1-0.1-0.3-0.2-0.5-0.2
		c-0.2,0-0.4,0.1-0.5,0.2l-1.3,1.3V34c0-0.1,0-0.2-0.1-0.3c-0.1-0.3-0.4-0.5-0.7-0.5c-0.1,0-0.2,0-0.3,0.1c-0.3,0.1-0.5,0.4-0.5,0.8
		v2.7l-1.3-1.3c-0.3-0.3-0.7-0.3-0.9,0c-0.3,0.3-0.3,0.7,0,0.9l2.3,2.2v5.8l-4.1-4v-3.2c0-0.4-0.3-0.7-0.7-0.7
		c-0.2,0-0.3,0.1-0.5,0.2c-0.1,0.1-0.2,0.3-0.2,0.5v1.9l-2-2c-0.1-0.1-0.2-0.1-0.3-0.2c-0.3-0.1-0.6-0.1-0.9,0.2
		c-0.1,0.1-0.1,0.2-0.2,0.3c-0.1,0.3-0.1,0.7,0.2,0.9l1.9,1.9h-1.9c-0.4,0-0.7,0.3-0.7,0.7c0,0.4,0.3,0.7,0.7,0.7h3.2l4.1,4.1H30
		l-2.2-2.2c-0.3-0.3-0.7-0.3-0.9,0c-0.1,0.1-0.2,0.3-0.2,0.5c0,0.2,0.1,0.3,0.2,0.5l1.3,1.3h-2.8c-0.1,0-0.2,0-0.3,0.1
		c-0.3,0.1-0.5,0.4-0.5,0.7c0,0.1,0,0.2,0.1,0.3c0.1,0.3,0.4,0.5,0.8,0.5h2.7l-1.3,1.3c-0.3,0.3-0.3,0.7,0,0.9
		c0.3,0.2,0.7,0.2,0.9,0l2.2-2.3h5.8l-4.1,4h-3.2c-0.4,0-0.7,0.3-0.7,0.7c0,0.2,0.1,0.3,0.2,0.5c0.1,0.1,0.3,0.2,0.5,0.2h1.9
		l-1.9,1.9c-0.1,0.1-0.1,0.2-0.2,0.3c-0.1,0.3-0.1,0.6,0.2,0.9c0.1,0.1,0.2,0.1,0.3,0.2c0.1,0,0.2,0.1,0.3,0.1
		c0.2,0,0.4-0.1,0.6-0.3l1.9-1.9v1.9c0,0.4,0.3,0.7,0.7,0.7c0.4,0,0.7-0.3,0.7-0.7v-3.2l4.1-4.1V54l-2.3,2.2c-0.3,0.3-0.3,0.7,0,0.9
		c0.1,0.1,0.3,0.2,0.5,0.2c0.2,0,0.4-0.1,0.5-0.2l1.3-1.3v2.8v0c0,0.4,0.4,0.8,0.8,0.8c0.1,0,0.2,0,0.3-0.1c0.3-0.1,0.5-0.4,0.5-0.8
		v-2.7l1.3,1.3c0.2,0.3,0.7,0.3,0.9,0c0.3-0.3,0.3-0.7,0-0.9l-2.3-2.3v-5.8l4,4v3.2c0,0.4,0.3,0.7,0.7,0.7c0.2,0,0.4-0.1,0.5-0.2
		c0.1-0.1,0.2-0.3,0.2-0.5v-1.9l1.9,1.9c0.1,0.1,0.2,0.1,0.3,0.2c0.3,0.1,0.6,0.1,0.9-0.2c0.1-0.1,0.1-0.2,0.2-0.3
		c0.1-0.3,0.1-0.7-0.2-0.9L45.6,53l-0.5-0.5H47c0.4,0,0.7-0.3,0.7-0.7c0-0.4-0.3-0.6-0.7-0.6h-3.2l-4.1-4.1h5.7l2.2,2.2
		c0.3,0.3,0.7,0.3,0.9,0c0.1-0.1,0.2-0.3,0.2-0.5c0-0.2-0.1-0.3-0.2-0.5l-1.3-1.3h0h2.7c0.1,0,0.2,0,0.3-0.1
		c0.3-0.1,0.5-0.4,0.5-0.7c0-0.1,0-0.2-0.1-0.3C50.7,45.7,50.4,45.5,50.1,45.5"/>
</g>
</svg>
