<?xml version="1.0" encoding="utf-8"?>
<!-- Generator: Adobe Illustrator 18.1.0, SVG Export Plug-In . SVG Version: 6.00 Build 0)  -->
<svg version="1.1" id="Layer_1" xmlns="http://www.w3.org/2000/svg" xmlns:xlink="http://www.w3.org/1999/xlink" x="0px" y="0px"
	 viewBox="0 0 75 75" enable-background="new 0 0 75 75" xml:space="preserve">
<g>
	<defs>
		<rect id="SVGID_9_" x="1.5" y="3" width="72" height="69"/>
	</defs>
	<clipPath id="SVGID_2_">
		<use xlink:href="#SVGID_9_"  overflow="visible"/>
	</clipPath>
	<path clip-path="url(#SVGID_2_)" fill="#414042" d="M20.2,36.6c-2.2,0.3-4.4,0-6.6-0.8c-1-0.4-1.9-0.8-2.8-1.4
		c7.4,0,14.3-4.6,17-12c1.5-4.3,1.4-8.9-0.3-13c4.4,3.2,6.7,8.5,6.1,13.9c-0.7,1.2-1.3,2.5-1.6,4C26.3,27.7,21.8,31.5,20.2,36.6
		 M64.5,35L64.5,35c0.2-1.1,0.3-2.2,0.3-3.4c0-9.2-7.5-16.7-16.7-16.7c-4.5,0-8.5,1.8-11.5,4.6C35.7,13,31.4,7.1,24.7,4.7
		c-0.2-0.1-0.4-0.1-0.6-0.2L19.1,3l3.2,3.9c3.4,4.1,4.3,9.6,2.5,14.6C22.1,29,14,33.1,6.3,30.8l-4.9-1.5l3.2,3.9
		c2.1,2.5,4.8,4.4,7.9,5.5c2.4,0.8,4.8,1.1,7.1,1c0,0.2,0,0.3,0,0.5c0,7,5.7,12.8,12.8,12.8h2.3v-3.5h-2.3c-5.1,0-9.3-4.2-9.3-9.3
		c0-5.1,4.2-9.3,9.3-9.3c0.2,0,0.4,0,0.7,0l1.6,0.1l0.3-1.6c1.1-6.4,6.5-11.1,13.1-11.1c7.3,0,13.2,5.9,13.2,13.2
		c0,1.7-0.3,3.3-0.9,4.9l-1.5,3.6l3.7-1.4c0.6-0.2,1.3-0.3,1.9-0.3c3,0,5.5,2.5,5.5,5.5c0,3-2.5,5.5-5.5,5.5h-5.9V53h5.9
		c5,0,9-4,9-9C73.5,39,69.5,35,64.5,35"/>
	<path clip-path="url(#SVGID_2_)" fill="#414042" d="M49.3,56.5c0.2-0.2,0.2-0.5,0-0.8L47.5,54v-4.7l3.3,3.3v2.6
		c0,0.3,0.2,0.5,0.5,0.5c0.1,0,0.3-0.1,0.4-0.2c0.1-0.1,0.2-0.2,0.2-0.4v-1.5l1.6,1.6c0.1,0.1,0.1,0.1,0.2,0.1
		c0.2,0.1,0.5,0.1,0.7-0.1c0.1-0.1,0.1-0.1,0.1-0.2c0.1-0.2,0.1-0.6-0.1-0.7l-1.1-1.1l-0.4-0.4h1.5c0.3,0,0.5-0.2,0.5-0.5
		c0-0.3-0.2-0.5-0.5-0.5h-2.6l-3.3-3.3h4.7l1.8,1.8c0.2,0.2,0.5,0.2,0.8,0c0.1-0.1,0.1-0.2,0.1-0.4c0-0.1,0-0.3-0.1-0.4l-1.1-1.1h0
		h2.2c0.1,0,0.2,0,0.3-0.1c0.2-0.1,0.4-0.3,0.4-0.6c0-0.1,0-0.2-0.1-0.3c-0.1-0.2-0.3-0.4-0.6-0.4h-2.2l1.1-1.1
		c0.2-0.2,0.2-0.5,0-0.8c-0.2-0.2-0.5-0.2-0.8,0L53.1,47h-4.7l3.3-3.3h2.6c0.3,0,0.5-0.2,0.5-0.5c0-0.1,0-0.3-0.2-0.4
		c-0.1-0.1-0.2-0.2-0.4-0.2h-1.5l1.6-1.6c0.1-0.1,0.1-0.1,0.1-0.2c0.1-0.2,0.1-0.5-0.1-0.7c-0.1-0.1-0.1-0.1-0.2-0.1
		c-0.1,0-0.2-0.1-0.3-0.1c-0.2,0-0.4,0.1-0.5,0.2l-1.6,1.6v-1.5c0-0.3-0.2-0.5-0.5-0.5c-0.3,0-0.5,0.2-0.5,0.5v2.6L47.5,46v-4.7
		l1.8-1.8c0.2-0.2,0.2-0.5,0-0.7c-0.1-0.1-0.2-0.2-0.4-0.2c-0.1,0-0.3,0.1-0.4,0.2l-1.1,1.1v-2.2c0-0.1,0-0.2,0-0.3
		c-0.1-0.3-0.3-0.4-0.6-0.4c-0.1,0-0.2,0-0.3,0.1c-0.3,0.1-0.4,0.3-0.4,0.6v2.2L45,38.7c-0.2-0.2-0.6-0.2-0.8,0
		c-0.2,0.2-0.2,0.5,0,0.8l1.8,1.8V46l-3.3-3.3v-2.6c0-0.3-0.2-0.5-0.5-0.5c-0.1,0-0.3,0.1-0.4,0.2c-0.1,0.1-0.2,0.2-0.2,0.4v1.5
		l-1.6-1.6C40.1,40,40,40,39.9,39.9c-0.2-0.1-0.5-0.1-0.7,0.1c-0.1,0.1-0.1,0.1-0.1,0.2C39,40.5,39,40.8,39.2,41l1.6,1.6h-1.5
		c-0.3,0-0.5,0.2-0.5,0.5c0,0.3,0.2,0.5,0.5,0.5h2.6l3.3,3.3h-4.7l-1.8-1.8c-0.2-0.2-0.6-0.2-0.8,0c-0.1,0.1-0.1,0.2-0.1,0.4
		c0,0.1,0,0.3,0.1,0.4L39,47h-2.2c-0.1,0-0.2,0-0.3,0.1c-0.2,0.1-0.4,0.3-0.4,0.6c0,0.1,0,0.2,0.1,0.3c0.1,0.3,0.3,0.4,0.6,0.4h2.2
		l-1.1,1.1c-0.2,0.2-0.2,0.6,0,0.8c0.2,0.2,0.5,0.2,0.8,0l1.8-1.8h4.7l-3.3,3.3h-2.6c-0.3,0-0.5,0.2-0.5,0.5c0,0.1,0.1,0.3,0.1,0.4
		c0.1,0.1,0.2,0.2,0.4,0.2h1.5l-1.6,1.6c-0.1,0.1-0.1,0.1-0.1,0.2C39,54.7,39,55,39.2,55.2c0.1,0.1,0.1,0.1,0.2,0.1
		c0.1,0,0.2,0.1,0.3,0.1c0.2,0,0.3-0.1,0.5-0.2l1.6-1.6v1.5c0,0.3,0.2,0.5,0.5,0.5c0.3,0,0.5-0.2,0.5-0.5v-2.6l3.3-3.3v4.7l-1.8,1.8
		c-0.2,0.2-0.2,0.5,0,0.8c0.1,0.1,0.2,0.2,0.4,0.2c0.1,0,0.3-0.1,0.4-0.2l1.1-1.1v2.2v0c0,0.4,0.3,0.6,0.7,0.6c0.1,0,0.2,0,0.3,0
		c0.2-0.1,0.4-0.4,0.4-0.6v-2.2l1.1,1.1C48.7,56.8,49.1,56.8,49.3,56.5"/>
	<path clip-path="url(#SVGID_2_)" fill="#414042" d="M62.5,63.9H61l0.7-0.8c0.2-0.1,0.2-0.4,0-0.5c-0.1-0.1-0.4-0.1-0.5,0l-1.3,1.3
		h-3.3l2.3-2.3h1.8c0.2,0,0.4-0.2,0.4-0.4c0-0.1,0-0.2-0.1-0.3c-0.1-0.1-0.2-0.1-0.3-0.1h-1.1l1.1-1.1c0,0,0.1-0.1,0.1-0.2
		c0.1-0.2,0.1-0.4-0.1-0.5c0,0-0.1-0.1-0.1-0.1c-0.1,0-0.1-0.1-0.2-0.1c-0.1,0-0.2,0.1-0.3,0.1L59,60.1l0-1.1c0-0.2-0.2-0.4-0.4-0.4
		c-0.2,0-0.4,0.2-0.4,0.4v1.8l-2.3,2.3v-3.3l1.3-1.3c0.1-0.1,0.1-0.4,0-0.5C57.1,58.1,57,58,56.9,58c-0.1,0-0.2,0-0.3,0.1l-0.8,0.8
		v-1.6c0-0.1,0-0.1,0-0.2c-0.1-0.2-0.2-0.3-0.4-0.3c-0.1,0-0.1,0-0.2,0c-0.2,0.1-0.3,0.2-0.3,0.4v1.6l-0.7-0.8
		c-0.1-0.1-0.4-0.1-0.5,0c-0.1,0.1-0.1,0.4,0,0.6l1.3,1.3v3.3l-2.3-2.3v-1.8c0-0.2-0.2-0.4-0.4-0.4c-0.1,0-0.2,0-0.3,0.1
		c-0.1,0.1-0.1,0.2-0.1,0.3v1.1L50.8,59c0,0-0.1-0.1-0.2-0.1c-0.2-0.1-0.4-0.1-0.5,0.1c-0.1,0-0.1,0.1-0.1,0.1
		c-0.1,0.2,0,0.4,0.1,0.5l1.1,1.1h-1.1c-0.2,0-0.4,0.2-0.4,0.4c0,0.2,0.2,0.4,0.4,0.4H52l2.4,2.3H51l-1.3-1.3
		c-0.1-0.1-0.4-0.1-0.5,0c-0.1,0.1-0.1,0.2-0.1,0.3c0,0.1,0,0.2,0.1,0.3l0.7,0.8h-1.6c-0.1,0-0.1,0-0.2,0c-0.2,0.1-0.3,0.2-0.3,0.4
		c0,0.1,0,0.1,0,0.2c0.1,0.2,0.2,0.3,0.5,0.3h1.5l-0.7,0.8c-0.2,0.1-0.2,0.4,0,0.5c0.1,0.1,0.4,0.1,0.5,0l1.3-1.3h3.3L52,67.2h-1.8
		c-0.2,0-0.4,0.2-0.4,0.4c0,0.1,0,0.2,0.1,0.3c0.1,0.1,0.2,0.1,0.3,0.1h1.1l-1.1,1.1C50,69.1,50,69.2,50,69.2
		c-0.1,0.2,0,0.4,0.1,0.5c0.1,0,0.1,0.1,0.2,0.1c0.1,0,0.1,0.1,0.2,0.1c0.1,0,0.2-0.1,0.3-0.1l1.1-1.1v1.1c0,0.2,0.2,0.4,0.4,0.4
		c0.2,0,0.4-0.2,0.4-0.4v-1.8l2.3-2.4v3.3l-1.3,1.3c-0.1,0.2-0.1,0.4,0,0.5c0.1,0.1,0.2,0.1,0.3,0.1c0.1,0,0.2,0,0.3-0.1l0.7-0.8
		v1.6c0,0,0,0,0,0c0,0.2,0.2,0.5,0.5,0.5c0.1,0,0.1,0,0.2,0c0.2-0.1,0.3-0.3,0.3-0.4v-1.6l0.8,0.7c0.1,0.1,0.4,0.1,0.5,0
		c0.1-0.1,0.1-0.4,0-0.5l-1.3-1.3v-3.3l2.3,2.3v1.8c0,0.2,0.2,0.4,0.4,0.4c0.1,0,0.2-0.1,0.3-0.1c0.1-0.1,0.1-0.2,0.1-0.3v-1.1
		l1.1,1.1c0,0.1,0.1,0.1,0.2,0.1c0.2,0.1,0.4,0,0.5-0.1c0.1,0,0.1-0.1,0.1-0.2c0.1-0.2,0.1-0.4-0.1-0.5L60,68.3L59.7,68h1.1
		c0.2,0,0.4-0.2,0.4-0.4c0-0.2-0.2-0.4-0.4-0.4h-1.8l-2.3-2.3h3.3l1.3,1.3c0.2,0.1,0.4,0.1,0.5,0c0.1-0.1,0.1-0.2,0.1-0.3
		c0-0.1,0-0.2-0.1-0.3L61,64.9h0h1.6c0.1,0,0.1,0,0.2,0c0.2-0.1,0.3-0.2,0.3-0.4c0-0.1,0-0.1,0-0.2C62.9,64,62.7,63.9,62.5,63.9"/>
</g>
</svg>
