<?xml version="1.0" encoding="utf-8"?>
<!-- Generator: Adobe Illustrator 18.1.0, SVG Export Plug-In . SVG Version: 6.00 Build 0)  -->
<svg version="1.1" id="Layer_1" xmlns="http://www.w3.org/2000/svg" xmlns:xlink="http://www.w3.org/1999/xlink" x="0px" y="0px"
	 viewBox="0 0 75 75" enable-background="new 0 0 75 75" xml:space="preserve">
<g>
	<defs>
		<rect id="SVGID_19_" x="5" y="4.8" width="65.1" height="65.4"/>
	</defs>
	<clipPath id="SVGID_2_">
		<use xlink:href="#SVGID_19_"  overflow="visible"/>
	</clipPath>
	<path clip-path="url(#SVGID_2_)" fill="#F09A27" d="M39.5,16.7V6.8c0-1.1-0.9-2-2.1-2c-1.1,0-2,0.9-2,2v9.9c0.7-0.1,1.4-0.1,2-0.1
		C38.2,16.6,38.9,16.6,39.5,16.7"/>
	<path clip-path="url(#SVGID_2_)" fill="#F09A27" d="M7.1,39.3H17c-0.1-0.7-0.1-1.3-0.1-2c0-0.7,0-1.4,0.1-2H7.1c-1.1,0-2,0.9-2,2
		C5.1,38.4,6,39.3,7.1,39.3"/>
	<path clip-path="url(#SVGID_2_)" fill="#F09A27" d="M21.5,24.2c0.9-1.1,1.8-2,2.9-2.9l-7-7c-0.4-0.4-0.9-0.6-1.4-0.6
		c-0.5,0-1.1,0.2-1.4,0.6c-0.8,0.8-0.8,2.1,0,2.9L21.5,24.2z"/>
	<path clip-path="url(#SVGID_2_)" fill="#F09A27" d="M60.4,17.2c0.8-0.8,0.8-2.1,0-2.9c-0.4-0.4-0.9-0.6-1.4-0.6s-1.1,0.2-1.4,0.6
		l-7,7c1.1,0.9,2,1.8,2.9,2.9L60.4,17.2z"/>
	<path clip-path="url(#SVGID_2_)" fill="#F09A27" d="M58.1,37.2c0,0.7,0,1.4-0.1,2h9.9c1.1,0,2-0.9,2-2c0-1.1-0.9-2-2-2H58
		C58.1,35.8,58.1,36.5,58.1,37.2"/>
	<path clip-path="url(#SVGID_2_)" fill="#F09A27" d="M20.2,39.3h4.2c-0.1-0.7-0.2-1.4-0.2-2.1c0-7.3,6-13.3,13.3-13.3
		c7.3,0,13.3,6,13.3,13.3c0,0.7-0.1,1.4-0.2,2.1h4.2c0.1-0.7,0.1-1.4,0.1-2.1c0-9.6-7.8-17.4-17.4-17.4c-9.6,0-17.4,7.8-17.4,17.4
		C20.1,37.9,20.1,38.6,20.2,39.3"/>
	<path clip-path="url(#SVGID_2_)" fill="#F09A27" d="M7.9,49.6c0.1-0.1,9.9-8.8,28.8,0.3c7,3.4,13,4.5,17.8,4.5
		c9.6,0,14.6-4.5,15-4.8c0.7-0.7,0.8-1.8,0.1-2.5c-0.7-0.7-1.8-0.8-2.5-0.1c-0.1,0.1-9.9,8.8-28.8-0.3C17.2,36.6,6,46.6,5.5,47
		c-0.7,0.7-0.8,1.8-0.1,2.5C6.1,50.2,7.2,50.3,7.9,49.6"/>
	<path clip-path="url(#SVGID_2_)" fill="#F09A27" d="M67.1,54.9c-0.1,0.1-9.9,8.8-28.8-0.3C17.2,44.6,6,54.5,5.5,54.9
		c-0.7,0.7-0.8,1.8-0.1,2.5c0.7,0.7,1.8,0.8,2.5,0.1c0.1-0.1,9.9-8.8,28.8,0.3c7,3.4,13,4.5,17.8,4.5c9.6,0,14.6-4.5,15-4.8
		c0.7-0.7,0.8-1.8,0.1-2.5C68.9,54.3,67.8,54.3,67.1,54.9"/>
	<path clip-path="url(#SVGID_2_)" fill="#F09A27" d="M67.1,62.8c-0.1,0.1-9.9,8.8-28.8-0.3C17.2,52.5,6,62.4,5.5,62.8
		c-0.7,0.7-0.8,1.8-0.1,2.5c0.7,0.7,1.8,0.8,2.5,0.1c0.1-0.1,9.9-8.8,28.8,0.3c7,3.4,13,4.5,17.8,4.5c9.6,0,14.6-4.5,15-4.8
		c0.7-0.7,0.8-1.8,0.1-2.5C68.9,62.2,67.8,62.2,67.1,62.8"/>
</g>
</svg>
