<?xml version="1.0" encoding="utf-8"?>
<!-- Generator: Adobe Illustrator 18.1.0, SVG Export Plug-In . SVG Version: 6.00 Build 0)  -->
<svg version="1.1" id="Layer_1" xmlns="http://www.w3.org/2000/svg" xmlns:xlink="http://www.w3.org/1999/xlink" x="0px" y="0px"
	 viewBox="0 0 75 75" enable-background="new 0 0 75 75" xml:space="preserve">
<g>
	<defs>
		<rect id="SVGID_1_" x="0.8" y="14" width="73.5" height="46.9"/>
	</defs>
	<clipPath id="SVGID_2_">
		<use xlink:href="#SVGID_1_"  overflow="visible"/>
	</clipPath>
	<path clip-path="url(#SVGID_2_)" fill="#F09A27" d="M39.8,27.5V16.4c0-1.3-1-2.3-2.3-2.3c-1.3,0-2.3,1-2.3,2.3v11.2
		c0.8-0.1,1.5-0.1,2.3-0.1C38.3,27.4,39,27.5,39.8,27.5"/>
	<path clip-path="url(#SVGID_2_)" fill="#F09A27" d="M3.1,48.5c-1.3,0-2.3,1-2.3,2.3c0,1.3,1,2.3,2.3,2.3h11.2
		c-0.1-0.8-0.1-1.5-0.1-2.3c0-0.8,0-1.6,0.1-2.3H3.1z"/>
	<path clip-path="url(#SVGID_2_)" fill="#F09A27" d="M19.4,36c1-1.2,2.1-2.3,3.3-3.3l-7.9-7.9c-0.4-0.4-1-0.7-1.6-0.7
		c-0.6,0-1.2,0.2-1.6,0.7c-0.9,0.9-0.9,2.4,0,3.3L19.4,36z"/>
	<path clip-path="url(#SVGID_2_)" fill="#F09A27" d="M63.5,28.1c0.9-0.9,0.9-2.4,0-3.3c-0.4-0.4-1-0.7-1.6-0.7
		c-0.6,0-1.2,0.2-1.6,0.7l-7.9,7.9c1.2,1,2.3,2.1,3.3,3.3L63.5,28.1z"/>
	<path clip-path="url(#SVGID_2_)" fill="#F09A27" d="M71.9,48.5H60.7c0.1,0.8,0.1,1.5,0.1,2.3c0,0.8,0,1.6-0.1,2.3h11.2
		c1.3,0,2.3-1,2.3-2.3C74.2,49.5,73.2,48.5,71.9,48.5"/>
	<path clip-path="url(#SVGID_2_)" fill="#F09A27" d="M37.5,31c-10.9,0-19.8,8.9-19.8,19.8c0,0.8,0.1,1.6,0.1,2.4h4.7
		c-0.1-0.8-0.2-1.6-0.2-2.4c0-8.3,6.8-15.1,15.1-15.1c8.3,0,15.1,6.8,15.1,15.1c0,0.8-0.1,1.6-0.2,2.4h4.7c0.1-0.8,0.2-1.6,0.2-2.4
		C57.3,39.9,48.4,31,37.5,31"/>
	<path clip-path="url(#SVGID_2_)" fill="#F09A27" d="M38.9,44.3c-0.4-0.4-0.9-0.6-1.4-0.6c0,0-0.1,0-0.1,0c-0.5,0-1,0.2-1.4,0.5
		l-5.6,5.6c-0.7,0.7-0.7,2,0,2.7c0.4,0.4,0.9,0.6,1.4,0.6c0.5,0,1-0.2,1.3-0.6l2.1-2.1v5.1v3c0,1.3,1,2.3,2.3,2.3
		c1.3,0,2.3-1,2.3-2.3v-3v-5.1l2.1,2.1c0.7,0.7,2,0.7,2.7,0c0.7-0.7,0.7-2,0-2.7L38.9,44.3z"/>
</g>
</svg>
