<?xml version="1.0" encoding="utf-8"?>
<!-- Generator: Adobe Illustrator 18.1.0, SVG Export Plug-In . SVG Version: 6.00 Build 0)  -->
<svg version="1.1" id="Layer_1" xmlns="http://www.w3.org/2000/svg" xmlns:xlink="http://www.w3.org/1999/xlink" x="0px" y="0px"
	 viewBox="0 0 75 75" enable-background="new 0 0 75 75" xml:space="preserve">
<g>
	<defs>
		<rect id="SVGID_33_" x="4.4" y="4.8" width="66.2" height="65.5"/>
	</defs>
	<clipPath id="SVGID_2_">
		<use xlink:href="#SVGID_33_"  overflow="visible"/>
	</clipPath>
	<path clip-path="url(#SVGID_2_)" fill="#135C87" d="M59.5,29.4L59.5,29.4c0.2-1.4,0.4-2.7,0.4-4.1c0-11.3-9.2-20.6-20.6-20.6
		c-9.5,0-17.6,6.4-19.9,15.4c-8.3,0.4-15,7.3-15,15.7c0,8.7,7.1,15.7,15.7,15.7H23v-4.3h-2.8c-6.3,0-11.5-5.1-11.5-11.4
		c0-6.3,5.1-11.4,11.5-11.4c0.2,0,0.5,0,0.8,0l2,0.1l0.3-1.9c1.3-7.9,8-13.6,16-13.6c9,0,16.3,7.3,16.3,16.3c0,2.1-0.4,4.1-1.2,6
		l-1.8,4.5l4.5-1.7c0.8-0.3,1.6-0.4,2.4-0.4c3.7,0,6.8,3.1,6.8,6.8c0,3.7-3.1,6.8-6.8,6.8h-7.3v4.3h7.3c6.1,0,11.1-5,11.1-11.1
		C70.6,34.4,65.6,29.4,59.5,29.4"/>
	<path clip-path="url(#SVGID_2_)" fill="#135C87" d="M25.9,65.5c-0.3-0.7-0.6-1.9-0.6-2.8c0-0.1-0.1-0.1-0.1,0
		c-0.5,0.8-1.5,1.5-2.1,1.9c-0.3,0.2-1.2,0.8-1.4,1c0,0,0,0,0,0v0c-0.3,0.3-0.5,0.6-0.6,1c-0.5,1.5,0.3,3,1.8,3.5
		c1.4,0.5,3-0.3,3.5-1.8c0.1-0.4,0.2-0.8,0.1-1.1v0c0,0,0,0,0,0C26.4,66.9,26,65.8,25.9,65.5"/>
	<path clip-path="url(#SVGID_2_)" fill="#135C87" d="M30.1,52.5c-0.3-0.7-0.6-1.8-0.6-2.8c0-0.1-0.1-0.1-0.1-0.1
		c-0.5,0.8-1.5,1.5-2.1,1.9c-0.3,0.2-1.2,0.8-1.4,1c0,0,0,0,0,0c-0.3,0.3-0.5,0.6-0.6,1c-0.5,1.5,0.3,3,1.8,3.5
		c1.4,0.5,3-0.3,3.5-1.8c0.1-0.4,0.2-0.8,0.1-1.1c0,0,0,0,0-0.1C30.6,53.8,30.2,52.8,30.1,52.5"/>
	<path clip-path="url(#SVGID_2_)" fill="#135C87" d="M34.7,42.3c0.1-0.4,0.2-0.8,0.1-1.1h0c0,0,0,0,0-0.1c0-0.3-0.4-1.3-0.5-1.6
		c-0.3-0.6-0.6-1.8-0.6-2.8c0-0.1-0.1-0.1-0.1-0.1c-0.5,0.8-1.5,1.5-2.1,1.9c-0.3,0.2-1.2,0.8-1.4,1c0,0,0,0,0,0
		c-0.3,0.3-0.5,0.6-0.6,1c-0.5,1.4,0.3,3,1.8,3.5C32.7,44.5,34.2,43.7,34.7,42.3"/>
	<path clip-path="url(#SVGID_2_)" fill="#135C87" d="M34.2,65.5c-0.3-0.7-0.6-1.9-0.6-2.8c0-0.1-0.1-0.1-0.1,0
		c-0.5,0.8-1.5,1.5-2.1,1.9c-0.3,0.2-1.2,0.8-1.4,1l0,0v0c-0.3,0.3-0.5,0.6-0.6,1c-0.5,1.5,0.3,3,1.8,3.5c1.4,0.5,3-0.3,3.5-1.8
		c0.1-0.4,0.2-0.8,0.1-1.1v0c0,0,0,0,0,0C34.7,66.9,34.4,65.8,34.2,65.5"/>
	<path clip-path="url(#SVGID_2_)" fill="#135C87" d="M38.4,52.5c-0.3-0.7-0.6-1.8-0.6-2.8c0-0.1-0.1-0.1-0.1-0.1
		c-0.5,0.8-1.5,1.5-2.1,1.9c-0.3,0.2-1.2,0.8-1.4,1c0,0,0,0,0,0c-0.3,0.3-0.5,0.6-0.6,1c-0.5,1.5,0.3,3,1.8,3.5
		c1.4,0.5,3-0.3,3.5-1.8c0.1-0.4,0.2-0.8,0.1-1.1c0,0,0,0,0-0.1C38.9,53.8,38.5,52.8,38.4,52.5"/>
	<path clip-path="url(#SVGID_2_)" fill="#135C87" d="M43,42.3c0.1-0.4,0.2-0.8,0.1-1.1c0,0,0,0,0-0.1c0-0.3-0.4-1.3-0.5-1.6
		c-0.3-0.6-0.6-1.8-0.6-2.8c0-0.1-0.1-0.1-0.1-0.1c-0.5,0.8-1.5,1.5-2.1,1.9c-0.3,0.2-1.2,0.8-1.4,1c0,0,0,0,0,0h0
		c-0.2,0.3-0.5,0.6-0.6,1c-0.5,1.4,0.3,3,1.8,3.5C41,44.5,42.5,43.7,43,42.3"/>
	<path clip-path="url(#SVGID_2_)" fill="#135C87" d="M42.5,65.5c-0.3-0.7-0.6-1.9-0.6-2.8c0-0.1-0.1-0.1-0.1,0
		c-0.5,0.8-1.5,1.5-2.1,1.9c-0.3,0.2-1.2,0.8-1.4,1c0,0,0,0,0,0v0c-0.2,0.3-0.5,0.6-0.6,1c-0.5,1.5,0.3,3,1.8,3.5
		c1.4,0.5,3-0.3,3.5-1.8c0.1-0.4,0.2-0.8,0.1-1.1v0v0C43,66.9,42.7,65.8,42.5,65.5"/>
	<path clip-path="url(#SVGID_2_)" fill="#135C87" d="M46.7,52.5c-0.3-0.7-0.6-1.8-0.6-2.8c0-0.1-0.1-0.1-0.1-0.1
		c-0.5,0.8-1.5,1.5-2.1,1.9c-0.3,0.2-1.2,0.8-1.4,1c0,0,0,0,0,0c-0.3,0.3-0.5,0.6-0.6,1c-0.5,1.5,0.3,3,1.8,3.5
		c1.4,0.5,3-0.3,3.5-1.8c0.1-0.4,0.2-0.8,0.1-1.1v-0.1C47.2,53.8,46.9,52.8,46.7,52.5"/>
	<path clip-path="url(#SVGID_2_)" fill="#135C87" d="M50.9,39.4c-0.3-0.6-0.6-1.8-0.6-2.8c0-0.1-0.1-0.1-0.1-0.1
		c-0.5,0.8-1.5,1.5-2.1,1.9c-0.3,0.2-1.2,0.8-1.4,1c0,0,0,0,0,0c-0.2,0.3-0.5,0.6-0.6,1c-0.5,1.4,0.3,3,1.8,3.5
		c1.4,0.5,3-0.3,3.5-1.8c0.1-0.4,0.2-0.8,0.1-1.1h0c0,0,0,0,0-0.1C51.4,40.8,51,39.8,50.9,39.4"/>
</g>
</svg>
