<?xml version="1.0" encoding="utf-8"?>
<!-- Generator: Adobe Illustrator 18.1.0, SVG Export Plug-In . SVG Version: 6.00 Build 0)  -->
<svg version="1.1" id="Layer_1" xmlns="http://www.w3.org/2000/svg" xmlns:xlink="http://www.w3.org/1999/xlink" x="0px" y="0px"
	 viewBox="0 0 75 75" enable-background="new 0 0 75 75" xml:space="preserve">
<g>
	<defs>
		<rect id="SVGID_21_" x="0.8" y="0.8" width="73.5" height="73.5"/>
	</defs>
	<clipPath id="SVGID_2_">
		<use xlink:href="#SVGID_21_"  overflow="visible"/>
	</clipPath>
	<path clip-path="url(#SVGID_2_)" fill="#F09A27" d="M37.5,52.6c-8.3,0-15.1-6.8-15.1-15.1c0-8.3,6.8-15.1,15.1-15.1
		s15.1,6.8,15.1,15.1C52.6,45.8,45.8,52.6,37.5,52.6 M37.5,17.7c-10.9,0-19.8,8.9-19.8,19.8c0,10.9,8.9,19.7,19.8,19.7
		c10.9,0,19.8-8.9,19.8-19.7C57.3,26.6,48.4,17.7,37.5,17.7"/>
	<path clip-path="url(#SVGID_2_)" fill="#F09A27" d="M39.8,14.3V3.1c0-1.3-1-2.3-2.3-2.3c-1.3,0-2.3,1-2.3,2.3v11.2
		c0.8-0.1,1.5-0.1,2.3-0.1C38.3,14.1,39.1,14.2,39.8,14.3"/>
	<path clip-path="url(#SVGID_2_)" fill="#F09A27" d="M14.1,37.5c0-0.8,0-1.6,0.1-2.3H3.1c-1.3,0-2.3,1-2.3,2.3c0,1.3,1,2.3,2.3,2.3
		h11.2C14.2,39.1,14.1,38.3,14.1,37.5"/>
	<path clip-path="url(#SVGID_2_)" fill="#F09A27" d="M19.4,22.7c1-1.2,2.1-2.3,3.3-3.3l-7.9-7.9c-0.4-0.4-1-0.7-1.6-0.7
		c-0.6,0-1.2,0.2-1.6,0.7c-0.9,0.9-0.9,2.4,0,3.3L19.4,22.7z"/>
	<path clip-path="url(#SVGID_2_)" fill="#F09A27" d="M63.5,14.8c0.9-0.9,0.9-2.4,0-3.3c-0.4-0.4-1-0.7-1.6-0.7s-1.2,0.2-1.6,0.7
		l-7.9,7.9c1.2,1,2.3,2.1,3.3,3.3L63.5,14.8z"/>
	<path clip-path="url(#SVGID_2_)" fill="#F09A27" d="M55.6,52.3c-1,1.2-2.1,2.3-3.3,3.3l7.9,7.9c0.4,0.4,1,0.7,1.6,0.7
		c0.6,0,1.2-0.2,1.6-0.7c0.9-0.9,0.9-2.4,0-3.3L55.6,52.3z"/>
	<path clip-path="url(#SVGID_2_)" fill="#F09A27" d="M71.9,35.2H60.7c0.1,0.8,0.1,1.5,0.1,2.3c0,0.8,0,1.5-0.1,2.3h11.2
		c1.3,0,2.3-1,2.3-2.3C74.2,36.2,73.2,35.2,71.9,35.2"/>
	<path clip-path="url(#SVGID_2_)" fill="#F09A27" d="M35.2,60.7v11.2c0,1.3,1,2.3,2.3,2.3c1.3,0,2.3-1,2.3-2.3V60.7
		c-0.8,0.1-1.5,0.1-2.3,0.1C36.7,60.9,36,60.8,35.2,60.7"/>
	<path clip-path="url(#SVGID_2_)" fill="#F09A27" d="M11.5,60.2c-0.9,0.9-0.9,2.4,0,3.3c0.4,0.4,1,0.7,1.6,0.7
		c0.6,0,1.2-0.2,1.6-0.7l7.9-7.9c-1.2-1-2.3-2.1-3.3-3.3L11.5,60.2z"/>
</g>
</svg>
