<?xml version="1.0" encoding="utf-8"?>
<!-- Generator: Adobe Illustrator 18.1.0, SVG Export Plug-In . SVG Version: 6.00 Build 0)  -->
<svg version="1.1" id="Layer_1" xmlns="http://www.w3.org/2000/svg" xmlns:xlink="http://www.w3.org/1999/xlink" x="0px" y="0px"
	 viewBox="0 0 75 75" enable-background="new 0 0 75 75" xml:space="preserve">
<g>
	<defs>
		<rect id="SVGID_35_" x="3.4" y="11.4" width="68.1" height="52.3"/>
	</defs>
	<clipPath id="SVGID_2_">
		<use xlink:href="#SVGID_35_"  overflow="visible"/>
	</clipPath>
	<path clip-path="url(#SVGID_2_)" fill="#084F95" d="M17,27.4c0.4-0.4,0.7-0.9,1.1-1.3c0.4-0.4,0.8-0.8,1.2-1.1l-5.8-5.8
		c-0.6-0.7-1.7-0.7-2.4,0c-0.7,0.7-0.7,1.7,0,2.4L17,27.4z"/>
	<path clip-path="url(#SVGID_2_)" fill="#084F95" d="M3.9,37c-0.3,0.3-0.5,0.7-0.5,1.2c0,0.9,0.8,1.7,1.7,1.7h8.1
		c-0.1-1.1-0.1-2.2,0-3.4H5.1C4.7,36.5,4.2,36.6,3.9,37"/>
	<path clip-path="url(#SVGID_2_)" fill="#084F95" d="M31.9,13.1c0-0.9-0.7-1.7-1.7-1.7c-0.5,0-0.9,0.2-1.2,0.5
		c-0.3,0.3-0.5,0.7-0.5,1.2v8.2c1.1-0.1,2.2-0.1,3.4,0V13.1z"/>
	<path clip-path="url(#SVGID_2_)" fill="#084F95" d="M62.4,60.1h-3.7h-2.3H29.9c-5.2,0-9.5-4.2-9.5-9.5c0-5.2,4.2-9.4,9.5-9.4
		c0.2,0,0.4,0,0.7,0l1.6,0.1l0.3-1.6c1.1-6.5,6.6-11.2,13.2-11.2c7.4,0,13.4,6,13.4,13.4c0,1.7-0.3,3.4-1,5l-1.5,3.7l3.7-1.4
		c0.6-0.2,1.3-0.3,1.9-0.3c3.1,0,5.6,2.5,5.6,5.6C68,57.6,65.5,60.1,62.4,60.1 M22.4,30.4c3.5-3.5,8.8-4.1,12.9-1.9
		c-2.9,2.2-5.1,5.4-6,9.2c-3.7,0.2-7,2-9.3,4.6C18.4,38.3,19.2,33.6,22.4,30.4 M62.4,45.3L62.4,45.3c0.2-1.1,0.3-2.3,0.3-3.4
		c0-9.4-7.6-17-17-17c-2.5,0-4.9,0.6-7.1,1.6C33,22.5,25.1,22.9,20,28c-4.8,4.8-5.4,12.1-2.1,17.7c-0.6,1.5-1,3.2-1,5
		c0,7.2,5.8,13,13,13h26.5h2.3h3.7c5.1,0,9.2-4.1,9.2-9.1C71.6,49.4,67.5,45.3,62.4,45.3"/>
</g>
</svg>
