<?xml version="1.0" encoding="utf-8"?>
<!-- Generator: Adobe Illustrator 18.1.0, SVG Export Plug-In . SVG Version: 6.00 Build 0)  -->
<svg version="1.1" id="Layer_1" xmlns="http://www.w3.org/2000/svg" xmlns:xlink="http://www.w3.org/1999/xlink" x="0px" y="0px"
	 viewBox="0 0 75 75" enable-background="new 0 0 75 75" xml:space="preserve">
<g>
	<defs>
		<rect id="SVGID_23_" x="4.4" y="6.9" width="66.2" height="61.1"/>
	</defs>
	<clipPath id="SVGID_2_">
		<use xlink:href="#SVGID_23_"  overflow="visible"/>
	</clipPath>
	<path clip-path="url(#SVGID_2_)" fill="#7C7293" d="M59.6,65c-0.1,0-10.4,2.6-20.7-11c-3.8-5.1-7.7-8.1-11.2-9.9
		c-6.9-3.6-12.3-2.2-12.6-2.1c-0.8,0.2-1.2,1-1,1.8c0.2,0.8,1,1.2,1.7,1c0.1,0,10.4-2.6,20.7,11c11.5,15.1,23.3,12.1,23.7,12
		c0.8-0.2,1.2-1,1-1.8C61.2,65.2,60.4,64.8,59.6,65"/>
	<path clip-path="url(#SVGID_2_)" fill="#7C7293" d="M62.6,59.3c-0.1,0-10.4,2.6-20.7-11c-3.8-5.1-7.7-8.1-11.2-9.9
		c-6.9-3.6-12.3-2.2-12.6-2.1c-0.8,0.2-1.2,1-1,1.8c0.2,0.8,1,1.2,1.8,1c0.1,0,10.4-2.6,20.7,11C51,65.1,62.8,62.2,63.3,62
		c0.8-0.2,1.2-1,1-1.8C64.1,59.5,63.3,59.1,62.6,59.3"/>
	<path clip-path="url(#SVGID_2_)" fill="#7C7293" d="M65.5,53.5c-0.1,0-10.4,2.6-20.7-11c-3.8-5.1-7.7-8.1-11.2-9.9
		c-6.9-3.6-12.3-2.2-12.6-2.1c-0.8,0.2-1.2,1-1,1.8c0.2,0.8,1,1.2,1.8,1c0.1,0,10.4-2.6,20.7,11c11.4,15.1,23.3,12.1,23.7,12
		c0.8-0.2,1.2-1,1-1.8C67.1,53.8,66.3,53.3,65.5,53.5"/>
	<path clip-path="url(#SVGID_2_)" fill="#7C7293" d="M59.5,31.6L59.5,31.6c0.2-1.3,0.4-2.7,0.4-4.1c0-11.3-9.2-20.6-20.6-20.6
		c-9.5,0-17.6,6.4-19.9,15.4c-8.3,0.4-15,7.3-15,15.7c0,8.7,7.1,15.7,15.7,15.7h11.3c-1.9-2-3.7-3.4-5-4.3h-6.3
		c-6.3,0-11.4-5.1-11.4-11.4c0-6.3,5.1-11.4,11.4-11.4c0.2,0,0.5,0,0.8,0l2,0.1l0.3-1.9c1.3-7.9,8-13.6,16-13.6
		c9,0,16.3,7.3,16.3,16.3c0,2.1-0.4,4.1-1.2,6L52.6,38l4.5-1.7c0.8-0.3,1.6-0.4,2.4-0.4c3.7,0,6.8,3,6.8,6.8c0,3.7-3,6.8-6.8,6.8
		h-3.7c4.3,3,9,2.3,9.5,2.4c3.5-1.9,5.3-4.9,5.3-9.2C70.6,36.6,65.6,31.6,59.5,31.6"/>
</g>
</svg>
