<?xml version="1.0" encoding="utf-8"?>
<!-- Generator: Adobe Illustrator 18.1.0, SVG Export Plug-In . SVG Version: 6.00 Build 0)  -->
<svg version="1.1" id="Layer_1" xmlns="http://www.w3.org/2000/svg" xmlns:xlink="http://www.w3.org/1999/xlink" x="0px" y="0px"
	 viewBox="0 0 75 75" enable-background="new 0 0 75 75" xml:space="preserve">
<g>
	<g>
		<defs>
			<rect id="SVGID_27_" x="3.4" y="0.3" width="68.3" height="74.4"/>
		</defs>
		<clipPath id="SVGID_2_">
			<use xlink:href="#SVGID_27_"  overflow="visible"/>
		</clipPath>
		<path clip-path="url(#SVGID_2_)" fill="#505586" d="M31.9,2c0-0.9-0.8-1.7-1.7-1.7c-0.4,0-0.9,0.2-1.2,0.5
			c-0.3,0.3-0.5,0.7-0.5,1.2v8.2c1.1-0.1,2.3-0.1,3.4,0V2z"/>
		<path clip-path="url(#SVGID_2_)" fill="#5D4B67" d="M17,15.2c0.4-0.4,0.7-0.8,1.1-1.2c0.4-0.4,0.8-0.8,1.3-1.1L13.6,7
			c-0.7-0.7-1.7-0.7-2.4,0c-0.7,0.7-0.7,1.7,0,2.4L17,15.2z"/>
		<path clip-path="url(#SVGID_2_)" fill="#5D4B67" d="M3.9,24.8c-0.3,0.3-0.5,0.7-0.5,1.2c0,0.9,0.8,1.7,1.7,1.7h8.2
			c-0.1-1.1-0.1-2.3,0-3.4H5.1C4.6,24.3,4.2,24.5,3.9,24.8"/>
		<path clip-path="url(#SVGID_2_)" fill="#5D4B67" d="M29.3,25.8c-3.7,0.2-7,1.9-9.2,4.6c-1.7-4-0.9-8.9,2.3-12.1
			c3.6-3.6,9-4.2,13.2-1.8C32.6,18.7,30.3,21.9,29.3,25.8 M62.5,33.4L62.5,33.4c0.2-1.1,0.3-2.3,0.3-3.4c0-9.4-7.6-17-17-17
			c-2.5,0-4.8,0.6-6.9,1.5c-5.7-4.3-13.7-3.9-18.8,1.3c-4.8,4.8-5.5,12.2-2,17.8c-0.7,1.6-1.1,3.3-1.1,5.2c0,7.2,5.8,13,13,13h2.3
			v-3.6h-2.3c-5.2,0-9.5-4.3-9.5-9.5c0-5.2,4.2-9.5,9.5-9.5c0.2,0,0.4,0,0.7,0l1.6,0.1l0.3-1.6c1.1-6.5,6.6-11.3,13.3-11.3
			c7.4,0,13.5,6,13.5,13.5c0,1.7-0.3,3.4-1,5l-1.5,3.7l3.7-1.4c0.6-0.2,1.3-0.4,2-0.4c3.1,0,5.6,2.5,5.6,5.6s-2.5,5.6-5.6,5.6h-6
			v3.6h6c5.1,0,9.2-4.1,9.2-9.2C71.6,37.5,67.5,33.4,62.5,33.4"/>
	</g>
	<polygon fill="#5D4B67" points="43.7,34.3 35.9,48 42,47.9 34.9,58.8 39.5,58.8 30.1,74.7 48.1,55 42.9,55 51.5,44.2 45.4,44.2 
		54,34.2 	"/>
</g>
</svg>
