<?xml version="1.0" encoding="utf-8"?>
<!-- Generator: Adobe Illustrator 18.1.0, SVG Export Plug-In . SVG Version: 6.00 Build 0)  -->
<svg version="1.1" id="Layer_1" xmlns="http://www.w3.org/2000/svg" xmlns:xlink="http://www.w3.org/1999/xlink" x="0px" y="0px"
	 viewBox="0 0 75 75" enable-background="new 0 0 75 75" xml:space="preserve">
<g>
	<g>
		<defs>
			<rect id="SVGID_29_" x="9.7" y="6.1" width="55.7" height="62.8"/>
		</defs>
		<clipPath id="SVGID_2_">
			<use xlink:href="#SVGID_29_"  overflow="visible"/>
		</clipPath>
		<path clip-path="url(#SVGID_2_)" fill="#5D4B67" d="M56,26.9L56,26.9c0.2-1.1,0.3-2.3,0.3-3.5c0-9.5-7.8-17.3-17.3-17.3
			c-8,0-14.8,5.4-16.7,13c-7,0.3-12.6,6.1-12.6,13.2c0,7.3,5.9,13.2,13.2,13.2h2.4v-3.6h-2.4c-5.3,0-9.6-4.3-9.6-9.6
			s4.3-9.6,9.6-9.6c0.2,0,0.4,0,0.7,0l1.6,0.1l0.3-1.6C26.6,14.5,32.3,9.7,39,9.7c7.5,0,13.7,6.1,13.7,13.7c0,1.7-0.3,3.4-1,5.1
			l-1.5,3.8l3.8-1.4c0.6-0.2,1.3-0.4,2-0.4c3.2,0,5.7,2.6,5.7,5.7c0,3.1-2.6,5.7-5.7,5.7h-6.1v3.6H56c5.1,0,9.3-4.2,9.3-9.3
			C65.3,31,61.2,26.9,56,26.9"/>
	</g>
	<polygon fill="#5D4B67" points="36.9,27.8 29,41.7 35.2,41.7 28,52.7 32.6,52.7 23.1,68.9 41.3,48.9 36.1,48.9 44.8,37.8 
		38.6,37.8 47.4,27.8 	"/>
</g>
</svg>
