<?xml version="1.0" encoding="utf-8"?>
<!-- Generator: Adobe Illustrator 18.1.0, SVG Export Plug-In . SVG Version: 6.00 Build 0)  -->
<svg version="1.1" id="Layer_1" xmlns="http://www.w3.org/2000/svg" xmlns:xlink="http://www.w3.org/1999/xlink" x="0px" y="0px"
	 viewBox="0 0 75 75" enable-background="new 0 0 75 75" xml:space="preserve">
<g>
	<defs>
		<rect id="SVGID_5_" x="10.6" y="9.4" width="53.9" height="56.3"/>
	</defs>
	<clipPath id="SVGID_2_">
		<use xlink:href="#SVGID_5_"  overflow="visible"/>
	</clipPath>
	<path clip-path="url(#SVGID_2_)" fill="#414042" d="M29.1,59.6c-1.5-0.5-3-1.2-4.3-2.1c11.3,0,21.9-7.1,25.9-18.3
		c2.3-6.6,2.1-13.6-0.5-19.8c8.1,5.8,11.7,16.5,8.2,26.3C54.1,57.6,41,63.9,29.1,59.6 M46.1,12c-0.3-0.1-0.6-0.2-0.9-0.3l-7.8-2.4
		l4.9,6c5.2,6.3,6.6,14.6,3.9,22.3C42.1,49.2,29.7,55.4,18,51.8l-7.4-2.3l4.9,6c3.2,3.9,7.3,6.8,12,8.5c14.3,5.1,30.2-2.4,35.3-16.7
		C67.9,33,60.5,17.1,46.1,12"/>
</g>
</svg>
