<?xml version="1.0" encoding="utf-8"?>
<!-- Generator: Adobe Illustrator 18.1.0, SVG Export Plug-In . SVG Version: 6.00 Build 0)  -->
<svg version="1.1" id="Layer_1" xmlns="http://www.w3.org/2000/svg" xmlns:xlink="http://www.w3.org/1999/xlink" x="0px" y="0px"
	 viewBox="0 0 75 75" enable-background="new 0 0 75 75" xml:space="preserve">
<g>
	<defs>
		<rect id="SVGID_7_" x="2.1" y="6.1" width="70.8" height="62.8"/>
	</defs>
	<clipPath id="SVGID_2_">
		<use xlink:href="#SVGID_7_"  overflow="visible"/>
	</clipPath>
	<path clip-path="url(#SVGID_2_)" fill="#414042" d="M37.4,65.2c-0.2-0.5-0.5-1.5-0.4-2.2c0-0.1-0.1-0.1-0.1,0
		c-0.4,0.6-1.2,1.2-1.7,1.5c-0.2,0.1-0.9,0.6-1.1,0.8c0,0,0,0,0,0v0c-0.2,0.2-0.4,0.5-0.5,0.8c-0.4,1.1,0.2,2.4,1.4,2.7
		c1.1,0.4,2.4-0.2,2.7-1.4c0.1-0.3,0.1-0.6,0.1-0.9v0c0,0,0,0,0,0C37.8,66.3,37.5,65.4,37.4,65.2"/>
	<path clip-path="url(#SVGID_2_)" fill="#414042" d="M40.7,54.9c-0.2-0.5-0.5-1.5-0.4-2.2c0-0.1-0.1-0.1-0.1,0
		c-0.4,0.6-1.2,1.2-1.7,1.5c-0.2,0.1-0.9,0.6-1.1,0.8c0,0,0,0,0,0c-0.2,0.2-0.4,0.5-0.5,0.8c-0.4,1.1,0.2,2.4,1.4,2.7
		c1.1,0.4,2.4-0.3,2.7-1.4c0.1-0.3,0.1-0.6,0.1-0.9c0,0,0,0,0,0C41.1,56,40.8,55.2,40.7,54.9"/>
	<path clip-path="url(#SVGID_2_)" fill="#414042" d="M44.3,46.9c0.1-0.3,0.1-0.6,0.1-0.9h0c0,0,0,0,0,0c0-0.2-0.3-1-0.4-1.3
		c-0.2-0.5-0.5-1.5-0.4-2.2c0-0.1-0.1-0.1-0.1,0c-0.4,0.6-1.2,1.2-1.7,1.5c-0.2,0.1-0.9,0.6-1.1,0.8c0,0,0,0,0,0
		c-0.2,0.2-0.4,0.5-0.5,0.8c-0.4,1.1,0.2,2.4,1.4,2.7C42.7,48.7,44,48,44.3,46.9"/>
	<path clip-path="url(#SVGID_2_)" fill="#414042" d="M44,65.2c-0.2-0.5-0.5-1.5-0.4-2.2c0-0.1-0.1-0.1-0.1,0
		c-0.4,0.6-1.2,1.2-1.7,1.5c-0.2,0.1-0.9,0.6-1.1,0.8l0,0v0c-0.2,0.2-0.4,0.5-0.5,0.8c-0.4,1.1,0.2,2.4,1.4,2.7
		c1.1,0.4,2.3-0.2,2.7-1.4c0.1-0.3,0.1-0.6,0.1-0.9v0c0,0,0,0,0,0C44.3,66.3,44.1,65.4,44,65.2"/>
	<path clip-path="url(#SVGID_2_)" fill="#414042" d="M47.3,54.9c-0.2-0.5-0.5-1.5-0.4-2.2c0-0.1-0.1-0.1-0.1,0
		c-0.4,0.6-1.2,1.2-1.7,1.5c-0.2,0.1-0.9,0.6-1.1,0.8c0,0,0,0,0,0c-0.2,0.2-0.4,0.5-0.5,0.8c-0.4,1.1,0.2,2.4,1.4,2.7
		c1.1,0.4,2.4-0.3,2.7-1.4c0.1-0.3,0.1-0.6,0.1-0.9c0,0,0,0,0,0C47.6,56,47.3,55.2,47.3,54.9"/>
	<path clip-path="url(#SVGID_2_)" fill="#414042" d="M50.9,46.9C51,46.6,51,46.3,51,46c0,0,0,0,0,0c0-0.2-0.3-1-0.4-1.3
		c-0.2-0.5-0.5-1.5-0.4-2.2c0-0.1-0.1-0.1-0.1,0c-0.4,0.6-1.2,1.2-1.7,1.5c-0.2,0.1-0.9,0.6-1.1,0.8c0,0,0,0,0,0h0
		c-0.2,0.2-0.4,0.5-0.5,0.8c-0.4,1.1,0.3,2.4,1.4,2.7C49.3,48.7,50.5,48,50.9,46.9"/>
	<path clip-path="url(#SVGID_2_)" fill="#414042" d="M50.5,65.2C50.3,64.7,50,63.7,50,63c0-0.1-0.1-0.1-0.1,0
		c-0.4,0.6-1.2,1.2-1.7,1.5c-0.2,0.1-0.9,0.6-1.1,0.8c0,0,0,0,0,0v0c-0.2,0.2-0.4,0.5-0.5,0.8c-0.4,1.1,0.3,2.4,1.4,2.7
		c1.1,0.4,2.4-0.2,2.7-1.4c0.1-0.3,0.1-0.6,0.1-0.9v0v0C50.9,66.3,50.6,65.4,50.5,65.2"/>
	<path clip-path="url(#SVGID_2_)" fill="#414042" d="M53.8,54.9c-0.2-0.5-0.5-1.5-0.5-2.2c0-0.1-0.1-0.1-0.1,0
		c-0.4,0.6-1.2,1.2-1.7,1.5c-0.2,0.1-0.9,0.6-1.1,0.8c0,0,0,0,0,0c-0.2,0.2-0.4,0.5-0.5,0.8c-0.4,1.1,0.2,2.4,1.4,2.7
		c1.1,0.4,2.4-0.3,2.7-1.4c0.1-0.3,0.1-0.6,0.1-0.9v0C54.2,56,53.9,55.2,53.8,54.9"/>
	<path clip-path="url(#SVGID_2_)" fill="#414042" d="M57.1,44.7c-0.2-0.5-0.5-1.4-0.4-2.2c0-0.1-0.1-0.1-0.1,0
		c-0.4,0.6-1.2,1.2-1.7,1.5c-0.2,0.1-0.9,0.6-1.1,0.8c0,0,0,0,0,0c-0.2,0.2-0.4,0.5-0.5,0.8c-0.4,1.1,0.2,2.4,1.4,2.7
		c1.1,0.4,2.4-0.3,2.7-1.4c0.1-0.3,0.1-0.6,0.1-0.9h0c0,0,0,0,0,0C57.5,45.8,57.2,44.9,57.1,44.7"/>
	<path clip-path="url(#SVGID_2_)" fill="#414042" d="M33.3,26.7c-0.5,0.9-0.8,1.9-1.1,3c-5.5,0.3-10,4.1-11.4,9.2
		c-2.2,0.3-4.6,0.1-6.9-0.7c-1-0.4-1.9-0.8-2.8-1.3c7.3,0,14-4.5,16.6-11.7c1.5-4.2,1.4-8.7-0.3-12.7C31.9,15.7,34.2,21.2,33.3,26.7
		 M64.1,37.1L64.1,37.1c0.2-1.1,0.3-2.2,0.3-3.3c0-9-7.3-16.4-16.4-16.4c-4.6,0-8.7,1.9-11.7,4.9c-0.8-6.5-5-12.3-11.5-14.6
		c-0.2-0.1-0.4-0.1-0.6-0.2l-5-1.5l3.2,3.8c3.3,4,4.2,9.4,2.5,14.2c-2.6,7.4-10.6,11.4-18.1,9.1l-4.7-1.5l3.1,3.8
		c2,2.5,4.7,4.3,7.7,5.4c2.5,0.9,5,1.1,7.4,0.9c0,0.1,0,0.1,0,0.2c0,6.9,5.6,12.5,12.5,12.5h2.3v-3.4h-2.3c-5,0-9.1-4.1-9.1-9.1
		c0-5,4.1-9.1,9.1-9.1c0.2,0,0.4,0,0.6,0l1.6,0.1l0.3-1.5c1-6.3,6.4-10.8,12.7-10.8c7.1,0,12.9,5.8,12.9,12.9c0,1.6-0.3,3.3-0.9,4.8
		l-1.4,3.6l3.6-1.3c0.6-0.2,1.2-0.3,1.9-0.3c3,0,5.4,2.4,5.4,5.4c0,3-2.4,5.4-5.4,5.4h-5.8v3.4h5.8c4.9,0,8.8-4,8.8-8.8
		C72.9,41,69,37.1,64.1,37.1"/>
	<path clip-path="url(#SVGID_2_)" fill="#414042" d="M37,53.1"/>
</g>
</svg>
