<?xml version="1.0" encoding="utf-8"?>
<!-- Generator: Adobe Illustrator 18.1.0, SVG Export Plug-In . SVG Version: 6.00 Build 0)  -->
<svg version="1.1" id="Layer_1" xmlns="http://www.w3.org/2000/svg" xmlns:xlink="http://www.w3.org/1999/xlink" x="0px" y="0px"
	 viewBox="0 0 75 75" enable-background="new 0 0 75 75" xml:space="preserve">
<g>
	<defs>
		<rect id="SVGID_13_" x="4.4" y="3.8" width="66.2" height="67.3"/>
	</defs>
	<clipPath id="SVGID_2_">
		<use xlink:href="#SVGID_13_"  overflow="visible"/>
	</clipPath>
	<path clip-path="url(#SVGID_2_)" fill="#515E90" d="M59.5,28.5L59.5,28.5c0.2-1.3,0.4-2.7,0.4-4.1c0-11.3-9.2-20.6-20.6-20.6
		c-9.5,0-17.6,6.4-19.9,15.4c-8.3,0.4-15,7.3-15,15.7c0,8.7,7.1,15.7,15.7,15.7H23v-4.3h-2.8c-6.3,0-11.4-5.1-11.4-11.4
		c0-6.3,5.1-11.4,11.4-11.4c0.2,0,0.5,0,0.8,0l2,0.1l0.3-1.9c1.3-7.9,8-13.6,16-13.6c9,0,16.3,7.3,16.3,16.3c0,2.1-0.4,4.1-1.2,6
		l-1.8,4.5l4.5-1.7c0.8-0.3,1.6-0.4,2.4-0.4c3.7,0,6.8,3.1,6.8,6.8c0,3.8-3.1,6.8-6.8,6.8h-7.3v4.3h7.3c6.1,0,11.1-5,11.1-11.1
		C70.6,33.5,65.6,28.5,59.5,28.5"/>
	<path clip-path="url(#SVGID_2_)" fill="#515E90" d="M40.8,52.2c0.3-0.3,0.3-0.7,0-0.9L38.6,49v-5.8l4.1,4v3.2
		c0,0.4,0.3,0.7,0.7,0.7c0.2,0,0.3-0.1,0.5-0.2c0.1-0.1,0.2-0.3,0.2-0.5v-1.8l1.9,1.9c0.1,0.1,0.2,0.1,0.3,0.2
		c0.3,0.1,0.7,0.1,0.9-0.2c0.1-0.1,0.1-0.2,0.2-0.3c0.1-0.3,0.1-0.7-0.2-0.9L45.6,48l-0.5-0.5H47c0.4,0,0.7-0.3,0.7-0.7
		c0-0.4-0.3-0.7-0.7-0.7h-3.2l-4.1-4.1h5.7l2.2,2.2c0.3,0.3,0.7,0.3,0.9,0c0.1-0.1,0.2-0.3,0.2-0.5c0-0.2-0.1-0.3-0.2-0.5l-1.3-1.3
		h0h2.7c0.1,0,0.2,0,0.3-0.1c0.3-0.1,0.5-0.4,0.5-0.7c0-0.1,0-0.2-0.1-0.3c-0.1-0.3-0.4-0.5-0.8-0.5h-2.7l1.3-1.3
		c0.3-0.2,0.3-0.7,0-0.9c-0.2-0.2-0.7-0.2-0.9,0l-2.2,2.2h-5.8l4-4H47c0.4,0,0.7-0.3,0.7-0.7c0-0.2-0.1-0.3-0.2-0.5
		c-0.1-0.1-0.3-0.2-0.5-0.2h-1.9l1.9-1.9c0.1-0.1,0.1-0.2,0.2-0.3c0.1-0.3,0.1-0.6-0.2-0.9c-0.1-0.1-0.2-0.2-0.3-0.2
		c-0.1-0.1-0.2-0.1-0.3-0.1c-0.2,0-0.4,0.1-0.6,0.2L44,33.9V32c0-0.4-0.3-0.7-0.7-0.7c-0.4,0-0.7,0.3-0.7,0.7v3.2l-4.1,4.1v-5.7
		l2.2-2.2c0.3-0.3,0.3-0.7,0-0.9c-0.1-0.1-0.3-0.2-0.5-0.2c-0.2,0-0.3,0.1-0.5,0.2l-1.3,1.3v-2.7c0-0.1,0-0.2-0.1-0.3
		c-0.1-0.3-0.4-0.5-0.7-0.5c-0.1,0-0.2,0-0.3,0.1c-0.3,0.1-0.5,0.4-0.5,0.8v2.7l-1.3-1.3c-0.3-0.3-0.7-0.3-0.9,0
		c-0.2,0.3-0.2,0.7,0,0.9l2.2,2.2v5.8l-4-4V32c0-0.4-0.3-0.7-0.7-0.7c-0.2,0-0.4,0.1-0.5,0.2c-0.1,0.1-0.2,0.3-0.2,0.5v1.9l-2-1.9
		c-0.1-0.1-0.2-0.1-0.3-0.2c-0.3-0.1-0.6-0.1-0.9,0.2c-0.1,0.1-0.1,0.2-0.2,0.3c-0.1,0.3-0.1,0.7,0.2,0.9l1.9,1.9h-1.9
		c-0.4,0-0.7,0.3-0.7,0.7s0.3,0.7,0.7,0.7h3.2l4.1,4.1H30l-2.2-2.2c-0.3-0.2-0.7-0.2-0.9,0c-0.1,0.1-0.2,0.3-0.2,0.5
		c0,0.2,0.1,0.3,0.2,0.5l1.3,1.3h-2.8c-0.1,0-0.2,0-0.3,0.1c-0.3,0.1-0.5,0.4-0.5,0.7c0,0.1,0,0.2,0.1,0.3c0.1,0.3,0.4,0.5,0.8,0.5
		h2.7l-1.3,1.3c-0.3,0.3-0.3,0.7,0,0.9c0.3,0.3,0.7,0.3,0.9,0l2.2-2.2h5.8l-4,4h-3.2c-0.4,0-0.7,0.3-0.7,0.7c0,0.2,0.1,0.3,0.2,0.5
		c0.1,0.1,0.3,0.2,0.5,0.2h1.8l-1.9,1.9c-0.1,0.1-0.1,0.2-0.2,0.3c-0.1,0.3-0.1,0.6,0.2,0.9c0.1,0.1,0.2,0.1,0.3,0.2
		c0.1,0,0.2,0.1,0.3,0.1c0.2,0,0.4-0.1,0.6-0.2l1.9-1.9v1.9c0,0.4,0.3,0.6,0.7,0.6c0.4,0,0.7-0.3,0.7-0.6v-3.2l4.1-4.1V49l-2.2,2.3
		c-0.3,0.3-0.3,0.7,0,0.9c0.1,0.1,0.3,0.2,0.5,0.2c0.2,0,0.3-0.1,0.5-0.2l1.3-1.3v2.8c0,0,0,0,0,0c0,0.4,0.4,0.8,0.8,0.8
		c0.1,0,0.2,0,0.3-0.1c0.3-0.1,0.5-0.4,0.5-0.8v-2.7l1.3,1.3C40.1,52.5,40.5,52.5,40.8,52.2"/>
	<path clip-path="url(#SVGID_2_)" fill="#515E90" d="M57.1,61.3h-1.9l0.9-0.9c0.2-0.2,0.2-0.5,0-0.7c-0.2-0.2-0.5-0.2-0.7,0
		l-1.6,1.6h-4.1l2.9-2.9h2.2c0.3,0,0.5-0.2,0.5-0.5c0-0.1-0.1-0.3-0.1-0.3c-0.1-0.1-0.2-0.1-0.3-0.1h-1.3l1.4-1.4
		c0-0.1,0.1-0.1,0.1-0.2c0.1-0.2,0.1-0.5-0.1-0.6c-0.1-0.1-0.1-0.1-0.2-0.1c-0.1,0-0.2-0.1-0.2-0.1c-0.2,0-0.3,0.1-0.4,0.2l-1.3,1.3
		v-1.3c0-0.3-0.2-0.5-0.5-0.5c-0.2,0-0.5,0.2-0.5,0.5v2.2L49,60.4v-4l1.6-1.6c0.2-0.2,0.2-0.5,0-0.7c-0.1-0.1-0.2-0.1-0.3-0.1
		c-0.1,0-0.2,0-0.3,0.1L49,55.1v-1.9c0-0.1,0-0.2,0-0.2c-0.1-0.2-0.3-0.4-0.5-0.4c-0.1,0-0.2,0-0.2,0c-0.2,0.1-0.4,0.3-0.4,0.5V55
		l-0.9-0.9c-0.2-0.2-0.5-0.2-0.7,0c-0.2,0.2-0.2,0.5,0,0.6l1.6,1.6v4.1l-2.9-2.9v-2.2c0-0.3-0.2-0.5-0.5-0.5c-0.1,0-0.2,0-0.3,0.1
		c-0.1,0.1-0.1,0.2-0.1,0.3v1.3l-1.4-1.4c-0.1-0.1-0.1-0.1-0.2-0.1c-0.2-0.1-0.5-0.1-0.6,0.1c-0.1,0.1-0.1,0.1-0.1,0.2
		c-0.1,0.2-0.1,0.5,0.1,0.7l1.4,1.4h-1.3c-0.3,0-0.5,0.2-0.5,0.5c0,0.2,0.2,0.5,0.5,0.5h2.2l2.9,2.9h-4l-1.6-1.6
		c-0.2-0.2-0.5-0.2-0.7,0c-0.1,0.1-0.1,0.2-0.1,0.3c0,0.1,0,0.2,0.1,0.3l0.9,0.9h-1.9c-0.1,0-0.2,0-0.2,0c-0.2,0.1-0.4,0.3-0.4,0.5
		c0,0.1,0,0.2,0,0.2c0.1,0.2,0.3,0.4,0.5,0.4h1.9l-0.9,0.9c-0.2,0.2-0.2,0.5,0,0.7c0.2,0.2,0.5,0.2,0.7,0l1.6-1.6H47l-2.9,2.9h-2.2
		c-0.3,0-0.5,0.2-0.5,0.5c0,0.1,0,0.2,0.1,0.3c0.1,0.1,0.2,0.1,0.3,0.1h1.3l-1.4,1.4c-0.1,0.1-0.1,0.1-0.1,0.2
		c-0.1,0.2-0.1,0.5,0.1,0.6c0.1,0.1,0.1,0.1,0.2,0.1c0.1,0,0.2,0.1,0.2,0.1c0.2,0,0.3-0.1,0.4-0.2l1.4-1.3l0,1.3
		c0,0.3,0.2,0.5,0.5,0.5c0.3,0,0.5-0.2,0.5-0.5v-2.2l2.9-2.9v4l-1.6,1.6c-0.2,0.2-0.2,0.5,0,0.7c0.1,0.1,0.2,0.1,0.3,0.1
		c0.1,0,0.2,0,0.3-0.1l0.9-0.9v1.9v0c0,0.3,0.3,0.6,0.6,0.6c0.1,0,0.1,0,0.2-0.1c0.2-0.1,0.4-0.3,0.4-0.5v-1.9l0.9,0.9
		c0.2,0.2,0.5,0.2,0.7,0c0.2-0.2,0.2-0.5,0-0.7L49,67.4v-4.1l2.9,2.9v2.2c0,0.3,0.2,0.5,0.5,0.5c0.1,0,0.2-0.1,0.3-0.1
		c0.1-0.1,0.1-0.2,0.1-0.3v-1.3l1.4,1.4c0.1,0.1,0.1,0.1,0.2,0.1c0.2,0.1,0.5,0.1,0.6-0.1c0.1-0.1,0.1-0.1,0.1-0.2
		c0.1-0.2,0.1-0.5-0.1-0.6l-1-1l-0.4-0.4h1.3c0.3,0,0.5-0.2,0.5-0.5s-0.2-0.5-0.5-0.5h-2.3l-2.9-2.9h4l1.6,1.6
		c0.2,0.2,0.5,0.2,0.7,0c0.1-0.1,0.1-0.2,0.1-0.3c0-0.1,0-0.2-0.1-0.3l-0.9-0.9h0h1.9c0.1,0,0.2,0,0.2,0c0.2-0.1,0.4-0.3,0.4-0.5
		c0-0.1,0-0.2,0-0.2C57.6,61.4,57.4,61.3,57.1,61.3"/>
</g>
</svg>
