<?xml version="1.0" encoding="utf-8"?>
<!-- Generator: Adobe Illustrator 18.1.0, SVG Export Plug-In . SVG Version: 6.00 Build 0)  -->
<svg version="1.1" id="Layer_1" xmlns="http://www.w3.org/2000/svg" xmlns:xlink="http://www.w3.org/1999/xlink" x="0px" y="0px"
	 viewBox="0 0 75 75" enable-background="new 0 0 75 75" xml:space="preserve">
<g>
	<defs>
		<rect id="SVGID_15_" x="3.8" y="2.8" width="67.3" height="69.3"/>
	</defs>
	<clipPath id="SVGID_2_">
		<use xlink:href="#SVGID_15_"  overflow="visible"/>
	</clipPath>
	<path clip-path="url(#SVGID_2_)" fill="#515E90" d="M17.1,18.5c0.3-0.4,0.7-0.8,1.1-1.2c0.4-0.4,0.8-0.8,1.2-1.1l-5.6-5.6
		c-0.6-0.6-1.7-0.6-2.3,0c-0.6,0.6-0.6,1.7,0,2.3L17.1,18.5z"/>
	<path clip-path="url(#SVGID_2_)" fill="#515E90" d="M4.3,27.8C4,28.1,3.8,28.6,3.8,29c0,0.9,0.7,1.7,1.6,1.7h8
		c-0.1-1.1-0.1-2.2,0-3.3h-8C5,27.3,4.6,27.5,4.3,27.8"/>
	<path clip-path="url(#SVGID_2_)" fill="#515E90" d="M31.7,4.5c0-0.9-0.7-1.6-1.6-1.6c-0.4,0-0.9,0.2-1.2,0.5
		c-0.3,0.3-0.5,0.7-0.5,1.2v8c1.1-0.1,2.2-0.1,3.3,0V4.5z"/>
	<path clip-path="url(#SVGID_2_)" fill="#515E90" d="M29.9,28c-4,0.2-7.5,2.2-9.7,5.3c-1.7-3.9-1-8.7,2.2-11.9
		c3.4-3.5,8.7-4,12.7-1.8C32.6,21.8,30.7,24.7,29.9,28 M62.2,35.5L62.2,35.5c0.2-1.1,0.3-2.2,0.3-3.3c0-9.1-7.4-16.6-16.6-16.6
		c-2.8,0-5.5,0.7-7.8,2c-5.5-3.9-13.1-3.4-18,1.5c-4.9,4.9-5.4,12.4-1.6,17.9c-0.4,1.2-0.6,2.5-0.6,3.8c0,7,5.7,12.7,12.7,12.7h2.3
		V50h-2.3c-5.1,0-9.2-4.1-9.2-9.2c0-5.1,4.1-9.2,9.2-9.2c0.2,0,0.4,0,0.7,0l1.6,0.1l0.3-1.6c1-6.4,6.5-11,12.9-11
		C53.2,19.1,59,25,59,32.2c0,1.7-0.3,3.3-0.9,4.9l-1.5,3.6l3.7-1.3c0.6-0.2,1.3-0.4,1.9-0.4c3,0,5.5,2.5,5.5,5.5
		c0,3-2.5,5.5-5.5,5.5h-5.9v3.5h5.9c4.9,0,8.9-4,8.9-9C71.2,39.5,67.1,35.5,62.2,35.5"/>
	<path clip-path="url(#SVGID_2_)" fill="#515E90" d="M47.1,56.9c0.2-0.2,0.2-0.5,0-0.7l-1.8-1.8v-4.7l3.3,3.3v2.5
		c0,0.3,0.2,0.5,0.5,0.5c0.1,0,0.3-0.1,0.4-0.2c0.1-0.1,0.2-0.2,0.2-0.4V54l1.6,1.6c0.1,0.1,0.1,0.1,0.2,0.1
		c0.2,0.1,0.5,0.1,0.7-0.1c0.1-0.1,0.1-0.1,0.1-0.2c0.1-0.3,0.1-0.5-0.1-0.7L51,53.5l-0.4-0.4h1.5c0.3,0,0.5-0.2,0.5-0.5
		c0-0.3-0.2-0.5-0.5-0.5h-2.6l-3.3-3.3h4.6l1.8,1.8c0.2,0.2,0.6,0.2,0.8,0c0.1-0.1,0.2-0.2,0.2-0.4c0-0.1-0.1-0.3-0.2-0.4l-1.1-1.1
		h0h2.2c0.1,0,0.2,0,0.3-0.1c0.2-0.1,0.4-0.3,0.4-0.6c0-0.1,0-0.2,0-0.3c-0.1-0.2-0.3-0.4-0.6-0.4h-2.2l1.1-1.1
		c0.2-0.2,0.2-0.5,0-0.8c-0.2-0.2-0.6-0.2-0.8,0l-1.8,1.8h-4.7l3.3-3.3h2.6c0.3,0,0.5-0.2,0.5-0.5c0-0.1-0.1-0.3-0.2-0.4
		c-0.1-0.1-0.2-0.2-0.4-0.2h-1.5l1.6-1.6c0.1-0.1,0.1-0.1,0.1-0.2c0.1-0.2,0.1-0.5-0.1-0.7c-0.1-0.1-0.1-0.1-0.2-0.1
		c-0.1,0-0.2-0.1-0.3-0.1c-0.2,0-0.3,0.1-0.5,0.2l-1.5,1.5v-1.5c0-0.3-0.2-0.5-0.5-0.5c-0.3,0-0.5,0.2-0.5,0.5v2.6l-3.3,3.3v-4.6
		l1.8-1.8c0.2-0.2,0.2-0.5,0-0.7c-0.1-0.1-0.2-0.2-0.4-0.2c-0.1,0-0.3,0.1-0.4,0.2l-1.1,1.1v-2.2c0-0.1,0-0.2-0.1-0.3
		c-0.1-0.2-0.3-0.4-0.6-0.4c-0.1,0-0.2,0-0.3,0.1c-0.3,0.1-0.4,0.3-0.4,0.6v2.2l-1.1-1.1c-0.2-0.2-0.5-0.2-0.7,0
		c-0.2,0.2-0.2,0.5,0,0.8l1.8,1.8v4.7l-3.3-3.3v-2.6c0-0.3-0.2-0.5-0.5-0.5c-0.2,0-0.3,0.1-0.4,0.2c-0.1,0.1-0.2,0.2-0.2,0.4v1.5
		l-1.6-1.6c-0.1-0.1-0.1-0.1-0.2-0.1c-0.2-0.1-0.5-0.1-0.7,0.1c-0.1,0.1-0.1,0.1-0.1,0.2c-0.1,0.2-0.1,0.5,0.1,0.7l1.5,1.6h-1.5
		c-0.3,0-0.5,0.2-0.5,0.5c0,0.3,0.2,0.5,0.5,0.5h2.6l3.3,3.3h-4.6l-1.8-1.8c-0.2-0.2-0.5-0.2-0.8,0c-0.1,0.1-0.2,0.2-0.2,0.4
		s0,0.3,0.2,0.4l1.1,1.1h-2.2c-0.1,0-0.2,0-0.3,0.1C34.2,47.5,34,47.8,34,48c0,0.1,0,0.2,0.1,0.3c0.1,0.3,0.3,0.4,0.6,0.4h2.2
		l-1.1,1c-0.2,0.2-0.2,0.5,0,0.8c0.2,0.2,0.5,0.2,0.7,0l1.8-1.8H43L39.8,52h-2.6c-0.3,0-0.5,0.2-0.5,0.5c0,0.1,0.1,0.3,0.2,0.4
		c0.1,0.1,0.2,0.2,0.4,0.2h1.5l-1.6,1.6c-0.1,0.1-0.1,0.1-0.1,0.2c-0.1,0.2-0.1,0.5,0.1,0.7c0.1,0.1,0.1,0.1,0.2,0.1
		c0.1,0,0.2,0.1,0.3,0.1c0.2,0,0.3-0.1,0.5-0.2l1.5-1.5v1.5c0,0.3,0.2,0.5,0.5,0.5c0.3,0,0.5-0.2,0.5-0.5v-2.6l3.3-3.3v4.6l-1.8,1.8
		c-0.2,0.2-0.2,0.6,0,0.8c0.1,0.1,0.2,0.2,0.4,0.2c0.1,0,0.3,0,0.4-0.2l1.1-1.1V58c0,0,0,0,0,0c0,0.4,0.3,0.6,0.6,0.6
		c0.1,0,0.2,0,0.3,0c0.3-0.1,0.4-0.3,0.4-0.6v-2.2l1.1,1C46.6,57.1,46.9,57.1,47.1,56.9"/>
	<path clip-path="url(#SVGID_2_)" fill="#515E90" d="M60.3,64.2h-1.5l0.7-0.8c0.2-0.1,0.2-0.4,0-0.5c-0.1-0.1-0.4-0.1-0.5,0
		l-1.3,1.3h-3.3l2.3-2.3h1.8c0.2,0,0.4-0.2,0.4-0.4c0-0.1,0-0.2-0.1-0.3c-0.1-0.1-0.2-0.1-0.3-0.1h-1.1l1.1-1.1
		c0-0.1,0.1-0.1,0.1-0.2c0.1-0.2,0-0.4-0.1-0.5c-0.1,0-0.1-0.1-0.2-0.1c-0.1,0-0.1,0-0.2,0c-0.1,0-0.2,0-0.3,0.1l-1.1,1.1v-1.1
		c0-0.2-0.2-0.4-0.4-0.4c-0.2,0-0.4,0.2-0.4,0.4v1.8l-2.3,2.3v-3.3L55,59c0.1-0.1,0.1-0.4,0-0.5c-0.1-0.1-0.2-0.1-0.3-0.1
		c-0.1,0-0.2,0-0.3,0.1l-0.7,0.7v-1.6c0-0.1,0-0.1,0-0.2c-0.1-0.2-0.2-0.3-0.4-0.3c-0.1,0-0.1,0-0.2,0c-0.2,0.1-0.3,0.2-0.3,0.4v1.5
		L52,58.4c-0.1-0.2-0.4-0.2-0.5,0c-0.1,0.1-0.1,0.4,0,0.5l1.3,1.3v3.3l-2.3-2.3v-1.8c0-0.2-0.2-0.4-0.4-0.4c-0.1,0-0.2,0-0.3,0.1
		c-0.1,0.1-0.1,0.2-0.1,0.3v1.1l-1.1-1.1c0,0-0.1-0.1-0.2-0.1c-0.2-0.1-0.4,0-0.5,0.1c-0.1,0.1-0.1,0.1-0.1,0.2
		c-0.1,0.2,0,0.4,0.1,0.5l1.1,1.1H48c-0.2,0-0.4,0.2-0.4,0.4c0,0.2,0.2,0.4,0.4,0.4h1.8l2.3,2.3h-3.3l-1.3-1.3
		c-0.1-0.1-0.4-0.1-0.5,0c-0.1,0.1-0.1,0.2-0.1,0.3c0,0.1,0,0.2,0.1,0.3l0.7,0.8h-1.6c-0.1,0-0.1,0-0.2,0c-0.2,0.1-0.3,0.2-0.3,0.4
		c0,0.1,0,0.1,0,0.2c0.1,0.2,0.2,0.3,0.4,0.3h1.5L47,65.9c-0.1,0.1-0.1,0.4,0,0.5c0.1,0.1,0.4,0.1,0.5,0l1.3-1.3h3.3l-2.3,2.3H48
		c-0.2,0-0.4,0.2-0.4,0.4c0,0.1,0,0.2,0.1,0.3c0.1,0.1,0.2,0.1,0.3,0.1H49l-1.1,1.1c0,0-0.1,0.1-0.1,0.2c-0.1,0.2-0.1,0.4,0.1,0.5
		c0,0,0.1,0.1,0.2,0.1c0.1,0,0.1,0,0.2,0c0.1,0,0.2,0,0.3-0.1l1.1-1.1l0,1.1c0,0.2,0.2,0.4,0.4,0.4c0.2,0,0.4-0.2,0.4-0.4v-1.8
		l2.3-2.3v3.3l-1.3,1.3c-0.1,0.1-0.1,0.4,0,0.5c0.1,0.1,0.2,0.1,0.3,0.1c0.1,0,0.2,0,0.3-0.1l0.8-0.7v1.6c0,0,0,0,0,0
		c0,0.2,0.2,0.5,0.5,0.5c0.1,0,0.1,0,0.2,0c0.2-0.1,0.3-0.2,0.3-0.4v-1.5l0.7,0.8c0.2,0.1,0.4,0.1,0.5,0c0.1-0.2,0.1-0.4,0-0.5
		l-1.3-1.3v-3.3l2.3,2.3v1.8c0,0.2,0.2,0.4,0.4,0.4c0.1,0,0.2,0,0.3-0.1c0.1-0.1,0.1-0.2,0.1-0.3v-1.1l1.1,1.1c0,0,0.1,0.1,0.2,0.1
		c0.2,0.1,0.4,0,0.5-0.1c0,0,0.1-0.1,0.1-0.2c0.1-0.2,0-0.4-0.1-0.5l-0.8-0.8l-0.3-0.3h1.1c0.2,0,0.4-0.2,0.4-0.4
		c0-0.2-0.2-0.4-0.4-0.4h-1.8l-2.3-2.3h3.3l1.3,1.3c0.1,0.1,0.4,0.1,0.5,0c0.1-0.1,0.1-0.2,0.1-0.3c0-0.1,0-0.2-0.1-0.3l-0.8-0.8h0
		h1.6c0.1,0,0.1,0,0.2,0c0.2-0.1,0.3-0.2,0.3-0.4c0-0.1,0-0.1,0-0.2C60.7,64.3,60.5,64.2,60.3,64.2"/>
</g>
</svg>
